G75*
%MOIN*%
%OFA0B0*%
%FSLAX24Y24*%
%IPPOS*%
%LPD*%
%AMOC8*
5,1,8,0,0,1.08239X$1,22.5*
%
%ADD10C,0.0640*%
%ADD11C,0.0556*%
%ADD12C,0.0586*%
%ADD13C,0.0630*%
%ADD14R,0.1254X0.1254*%
%ADD15C,0.0672*%
%ADD16C,0.0320*%
%ADD17R,0.0586X0.0586*%
D10*
X016763Y019617D02*
X016763Y020257D01*
X017763Y020257D02*
X017763Y019617D01*
X018763Y019617D02*
X018763Y020257D01*
D11*
X025985Y016937D02*
X026541Y016937D01*
X026541Y015937D02*
X025985Y015937D01*
X025985Y014937D02*
X026541Y014937D01*
X026541Y013937D02*
X025985Y013937D01*
X028985Y013937D02*
X029541Y013937D01*
X029541Y014937D02*
X028985Y014937D01*
X028985Y015937D02*
X029541Y015937D01*
X029541Y016937D02*
X028985Y016937D01*
D12*
X031263Y016230D02*
X031263Y015644D01*
X031263Y018644D02*
X031263Y019230D01*
X025350Y019437D02*
X024763Y019437D01*
X024763Y020437D02*
X024763Y021023D01*
X023763Y019437D02*
X023177Y019437D01*
X021263Y020644D02*
X021263Y021230D01*
X021263Y023644D02*
X021263Y024230D01*
X020556Y017937D02*
X019970Y017937D01*
X019970Y016937D02*
X020556Y016937D01*
X023763Y017230D02*
X023763Y016644D01*
X023763Y014230D02*
X023763Y013644D01*
X022556Y012937D02*
X021970Y012937D01*
X019556Y012937D02*
X018970Y012937D01*
X018970Y010437D02*
X019556Y010437D01*
X021970Y010437D02*
X022556Y010437D01*
X027263Y011144D02*
X027263Y011730D01*
X028263Y011730D02*
X028263Y011144D01*
D13*
X028763Y019622D02*
X028763Y020252D01*
X029763Y020252D02*
X029763Y019622D01*
X017078Y017437D02*
X016448Y017437D01*
X016448Y016437D02*
X017078Y016437D01*
D14*
X010763Y014937D03*
X010763Y012937D03*
X010763Y018437D03*
X010763Y020437D03*
X010763Y023437D03*
X010763Y025437D03*
D15*
X023927Y025937D02*
X024599Y025937D01*
X024599Y024937D02*
X023927Y024937D01*
X023927Y023937D02*
X024599Y023937D01*
D16*
X008397Y029803D02*
X008397Y007570D01*
X034500Y007570D01*
X034500Y029803D01*
X008397Y029803D01*
X008397Y029550D02*
X009846Y029550D01*
X009806Y029540D02*
X009537Y029384D01*
X009316Y029163D01*
X009160Y028894D01*
X009080Y028592D01*
X009080Y028281D01*
X009160Y027980D01*
X009316Y027710D01*
X009537Y027490D01*
X009806Y027334D01*
X010108Y027253D01*
X010419Y027253D01*
X010720Y027334D01*
X010990Y027490D01*
X011210Y027710D01*
X011366Y027980D01*
X011447Y028281D01*
X011447Y028592D01*
X011366Y028894D01*
X011210Y029163D01*
X010990Y029384D01*
X010720Y029540D01*
X010419Y029620D01*
X010108Y029620D01*
X009806Y029540D01*
X009384Y029232D02*
X008397Y029232D01*
X008397Y028913D02*
X009172Y028913D01*
X009080Y028595D02*
X008397Y028595D01*
X008397Y028276D02*
X009081Y028276D01*
X009173Y027958D02*
X008397Y027958D01*
X008397Y027639D02*
X009387Y027639D01*
X009855Y027321D02*
X008397Y027321D01*
X008397Y027002D02*
X012151Y027002D01*
X012469Y027321D02*
X010672Y027321D01*
X011140Y027639D02*
X012788Y027639D01*
X012992Y027843D02*
X013168Y027916D01*
X019859Y027916D01*
X020035Y027843D01*
X020170Y027708D01*
X020462Y027416D01*
X026359Y027416D01*
X026535Y027343D01*
X026670Y027208D01*
X027170Y026708D01*
X027243Y026532D01*
X027243Y025341D01*
X027170Y025165D01*
X027035Y025030D01*
X026535Y024530D01*
X026359Y024457D01*
X025047Y024457D01*
X025025Y024436D01*
X025032Y024430D01*
X025093Y024370D01*
X025145Y024302D01*
X025188Y024227D01*
X025221Y024148D01*
X025244Y024065D01*
X025255Y023980D01*
X025255Y023937D01*
X024263Y023937D01*
X024263Y023937D01*
X023272Y023937D01*
X023272Y023980D01*
X023283Y024065D01*
X023305Y024148D01*
X023338Y024227D01*
X023381Y024302D01*
X023433Y024370D01*
X023494Y024430D01*
X023501Y024436D01*
X023372Y024565D01*
X023272Y024806D01*
X023272Y025067D01*
X023372Y025308D01*
X023500Y025437D01*
X023480Y025457D01*
X022462Y025457D01*
X021743Y024738D01*
X021743Y024617D01*
X021783Y024577D01*
X021876Y024352D01*
X021876Y023522D01*
X021783Y023297D01*
X021610Y023124D01*
X021385Y023031D01*
X021141Y023031D01*
X020916Y023124D01*
X020744Y023297D01*
X020651Y023522D01*
X020651Y024352D01*
X020744Y024577D01*
X020784Y024617D01*
X020784Y025032D01*
X020857Y025208D01*
X021992Y026343D01*
X022168Y026416D01*
X023480Y026416D01*
X023521Y026457D01*
X020168Y026457D01*
X019992Y026530D01*
X019565Y026957D01*
X019203Y026957D01*
X019212Y026948D01*
X019450Y026535D01*
X019573Y026075D01*
X019573Y025598D01*
X019450Y025138D01*
X019212Y024725D01*
X018875Y024388D01*
X018462Y024150D01*
X018002Y024027D01*
X017525Y024027D01*
X017065Y024150D01*
X016652Y024388D01*
X016315Y024725D01*
X016077Y025138D01*
X015953Y025598D01*
X015953Y026075D01*
X016077Y026535D01*
X016315Y026948D01*
X016324Y026957D01*
X013462Y026957D01*
X011710Y025205D01*
X011710Y024746D01*
X011661Y024629D01*
X011571Y024539D01*
X011454Y024490D01*
X010073Y024490D01*
X009956Y024539D01*
X009866Y024629D01*
X009817Y024746D01*
X009817Y026127D01*
X009866Y026244D01*
X009956Y026334D01*
X010073Y026383D01*
X011454Y026383D01*
X011509Y026360D01*
X012992Y027843D01*
X013263Y027437D02*
X011263Y025437D01*
X010763Y025437D01*
X009817Y025410D02*
X008397Y025410D01*
X008397Y025091D02*
X009817Y025091D01*
X009817Y024773D02*
X008397Y024773D01*
X008397Y024454D02*
X016586Y024454D01*
X016288Y024773D02*
X011710Y024773D01*
X011710Y025091D02*
X016104Y025091D01*
X016004Y025410D02*
X011914Y025410D01*
X012233Y025728D02*
X015953Y025728D01*
X015953Y026047D02*
X012551Y026047D01*
X012870Y026365D02*
X016031Y026365D01*
X016162Y026684D02*
X013188Y026684D01*
X013263Y027437D02*
X019763Y027437D01*
X020263Y026937D01*
X026263Y026937D01*
X026763Y026437D01*
X026763Y025437D01*
X026263Y024937D01*
X024263Y024937D01*
X023483Y024454D02*
X021833Y024454D01*
X021876Y024136D02*
X023302Y024136D01*
X023272Y023937D02*
X023272Y023894D01*
X023283Y023808D01*
X023305Y023725D01*
X023338Y023646D01*
X023381Y023572D01*
X023433Y023504D01*
X023494Y023443D01*
X023562Y023390D01*
X023637Y023348D01*
X023716Y023315D01*
X023799Y023292D01*
X023884Y023281D01*
X024263Y023281D01*
X024263Y023937D01*
X023272Y023937D01*
X023282Y023817D02*
X021876Y023817D01*
X021866Y023499D02*
X023438Y023499D01*
X024263Y023499D02*
X024263Y023499D01*
X024263Y023281D02*
X024642Y023281D01*
X024727Y023292D01*
X024810Y023315D01*
X024890Y023348D01*
X024964Y023390D01*
X025032Y023443D01*
X025093Y023504D01*
X025145Y023572D01*
X025188Y023646D01*
X025221Y023725D01*
X025244Y023808D01*
X025255Y023894D01*
X025255Y023937D01*
X024263Y023937D01*
X024263Y023937D01*
X024263Y023937D01*
X024263Y023281D01*
X024263Y023817D02*
X024263Y023817D01*
X025088Y023499D02*
X030042Y023499D01*
X030052Y023488D02*
X030465Y023250D01*
X030925Y023127D01*
X031402Y023127D01*
X031862Y023250D01*
X032275Y023488D01*
X032612Y023825D01*
X032850Y024238D01*
X032973Y024698D01*
X032973Y025175D01*
X032850Y025635D01*
X032612Y026048D01*
X032275Y026385D01*
X031862Y026623D01*
X031402Y026747D01*
X030925Y026747D01*
X030465Y026623D01*
X030052Y026385D01*
X029715Y026048D01*
X029477Y025635D01*
X029353Y025175D01*
X029353Y024698D01*
X029477Y024238D01*
X029715Y023825D01*
X030052Y023488D01*
X029723Y023817D02*
X025245Y023817D01*
X025225Y024136D02*
X029536Y024136D01*
X029419Y024454D02*
X025044Y024454D01*
X026777Y024773D02*
X029353Y024773D01*
X029353Y025091D02*
X027096Y025091D01*
X027243Y025410D02*
X029416Y025410D01*
X029530Y025728D02*
X027243Y025728D01*
X027243Y026047D02*
X029714Y026047D01*
X030032Y026365D02*
X027243Y026365D01*
X027180Y026684D02*
X030690Y026684D01*
X031637Y026684D02*
X034500Y026684D01*
X034500Y027002D02*
X026876Y027002D01*
X026557Y027321D02*
X032355Y027321D01*
X032306Y027334D02*
X032608Y027253D01*
X032919Y027253D01*
X033220Y027334D01*
X033490Y027490D01*
X033710Y027710D01*
X033866Y027980D01*
X033947Y028281D01*
X033947Y028592D01*
X033866Y028894D01*
X033710Y029163D01*
X033490Y029384D01*
X033220Y029540D01*
X032919Y029620D01*
X032608Y029620D01*
X032306Y029540D01*
X032037Y029384D01*
X031816Y029163D01*
X031660Y028894D01*
X031580Y028592D01*
X031580Y028281D01*
X031660Y027980D01*
X031816Y027710D01*
X032037Y027490D01*
X032306Y027334D01*
X031887Y027639D02*
X020239Y027639D01*
X019838Y026684D02*
X019364Y026684D01*
X019496Y026365D02*
X022045Y026365D01*
X021695Y026047D02*
X019573Y026047D01*
X019573Y025728D02*
X021377Y025728D01*
X021058Y025410D02*
X019523Y025410D01*
X019423Y025091D02*
X020808Y025091D01*
X020784Y024773D02*
X019239Y024773D01*
X018941Y024454D02*
X020693Y024454D01*
X020651Y024136D02*
X018408Y024136D01*
X017118Y024136D02*
X011706Y024136D01*
X011710Y024127D02*
X011661Y024244D01*
X011571Y024334D01*
X011454Y024383D01*
X010073Y024383D01*
X009956Y024334D01*
X009866Y024244D01*
X009817Y024127D01*
X009817Y022746D01*
X009866Y022629D01*
X009956Y022539D01*
X010073Y022490D01*
X010284Y022490D01*
X010284Y021383D01*
X010073Y021383D01*
X009956Y021334D01*
X009866Y021244D01*
X009817Y021127D01*
X009817Y019746D01*
X009866Y019629D01*
X009956Y019539D01*
X010073Y019490D01*
X011454Y019490D01*
X011571Y019539D01*
X011661Y019629D01*
X011710Y019746D01*
X011710Y019957D01*
X015565Y019957D01*
X015857Y019665D01*
X015992Y019530D01*
X016131Y019473D01*
X016221Y019254D01*
X016401Y019075D01*
X016636Y018977D01*
X016891Y018977D01*
X017126Y019075D01*
X017266Y019215D01*
X017282Y019194D01*
X017341Y019135D01*
X017407Y019084D01*
X017480Y019042D01*
X017557Y019010D01*
X017638Y018988D01*
X017721Y018977D01*
X017763Y018977D01*
X017763Y019937D01*
X017763Y020896D01*
X017721Y020896D01*
X017638Y020885D01*
X017557Y020863D01*
X017480Y020831D01*
X017407Y020789D01*
X017341Y020738D01*
X017282Y020679D01*
X017266Y020659D01*
X017126Y020799D01*
X016891Y020896D01*
X016636Y020896D01*
X016401Y020799D01*
X016240Y020638D01*
X016035Y020843D01*
X015859Y020916D01*
X011710Y020916D01*
X011710Y021127D01*
X011661Y021244D01*
X011571Y021334D01*
X011454Y021383D01*
X011243Y021383D01*
X011243Y022490D01*
X011454Y022490D01*
X011571Y022539D01*
X011661Y022629D01*
X011710Y022746D01*
X011710Y024127D01*
X011710Y023817D02*
X020651Y023817D01*
X020660Y023499D02*
X011710Y023499D01*
X011710Y023180D02*
X020860Y023180D01*
X021666Y023180D02*
X030725Y023180D01*
X031601Y023180D02*
X034500Y023180D01*
X034500Y022862D02*
X011710Y022862D01*
X011575Y022543D02*
X034500Y022543D01*
X034500Y022225D02*
X011243Y022225D01*
X011243Y021906D02*
X034500Y021906D01*
X034500Y021588D02*
X025000Y021588D01*
X025110Y021542D02*
X024885Y021635D01*
X024641Y021635D01*
X024416Y021542D01*
X024244Y021370D01*
X024151Y021145D01*
X024151Y020315D01*
X024244Y020090D01*
X024397Y019937D01*
X024258Y019798D01*
X024231Y019836D01*
X024162Y019904D01*
X024084Y019961D01*
X023998Y020004D01*
X023907Y020034D01*
X023812Y020049D01*
X023763Y020049D01*
X023129Y020049D01*
X023034Y020034D01*
X022942Y020004D01*
X022856Y019961D01*
X022778Y019904D01*
X022710Y019836D01*
X022653Y019758D01*
X022609Y019672D01*
X022580Y019580D01*
X022565Y019485D01*
X022565Y019437D01*
X023763Y019437D01*
X023763Y020049D01*
X023763Y019437D01*
X023763Y019437D01*
X023763Y019437D01*
X022565Y019437D01*
X022565Y019388D01*
X022579Y019299D01*
X021743Y020135D01*
X021743Y020257D01*
X021783Y020297D01*
X021876Y020522D01*
X021876Y021352D01*
X021783Y021577D01*
X021610Y021749D01*
X021385Y021842D01*
X021141Y021842D01*
X020916Y021749D01*
X020744Y021577D01*
X020651Y021352D01*
X020651Y020522D01*
X020744Y020297D01*
X020784Y020257D01*
X020784Y019841D01*
X020857Y019665D01*
X020992Y019530D01*
X022284Y018238D01*
X022284Y017454D01*
X022237Y017501D01*
X022120Y017549D01*
X021407Y017549D01*
X021289Y017501D01*
X021205Y017416D01*
X020943Y017416D01*
X020923Y017437D01*
X021076Y017590D01*
X021169Y017815D01*
X021169Y018058D01*
X021076Y018284D01*
X020903Y018456D01*
X020678Y018549D01*
X019848Y018549D01*
X019623Y018456D01*
X019524Y018356D01*
X019492Y018343D01*
X019357Y018208D01*
X018857Y017708D01*
X018784Y017532D01*
X018784Y016954D01*
X018737Y017001D01*
X018620Y017049D01*
X018329Y017049D01*
X017941Y017437D01*
X019170Y018665D01*
X019243Y018841D01*
X019243Y019192D01*
X019305Y019254D01*
X019403Y019489D01*
X019403Y020384D01*
X019305Y020619D01*
X019126Y020799D01*
X018891Y020896D01*
X018636Y020896D01*
X018401Y020799D01*
X018261Y020659D01*
X018245Y020679D01*
X018186Y020738D01*
X018119Y020789D01*
X018047Y020831D01*
X017969Y020863D01*
X017888Y020885D01*
X017805Y020896D01*
X017763Y020896D01*
X017763Y019937D01*
X017763Y019937D01*
X017763Y019937D01*
X017763Y018977D01*
X017805Y018977D01*
X017888Y018988D01*
X017969Y019010D01*
X018047Y019042D01*
X018119Y019084D01*
X018186Y019135D01*
X018245Y019194D01*
X018261Y019215D01*
X018284Y019192D01*
X018284Y019135D01*
X017215Y018067D01*
X017205Y018071D01*
X016322Y018071D01*
X016089Y017974D01*
X015910Y017796D01*
X015814Y017563D01*
X015814Y017310D01*
X015910Y017077D01*
X016054Y016934D01*
X016035Y016921D01*
X015964Y016850D01*
X015906Y016769D01*
X015860Y016680D01*
X015830Y016585D01*
X015814Y016487D01*
X015814Y016437D01*
X016763Y016437D01*
X016763Y016437D01*
X015814Y016437D01*
X015814Y016387D01*
X015830Y016288D01*
X015860Y016193D01*
X015906Y016104D01*
X015964Y016023D01*
X016035Y015953D01*
X016116Y015894D01*
X016205Y015849D01*
X016300Y015818D01*
X016398Y015802D01*
X016763Y015802D01*
X016763Y016437D01*
X016763Y016437D01*
X016763Y015802D01*
X017128Y015802D01*
X017227Y015818D01*
X017322Y015849D01*
X017411Y015894D01*
X017492Y015953D01*
X017562Y016023D01*
X017621Y016104D01*
X017651Y016163D01*
X017651Y016080D01*
X017699Y015963D01*
X017789Y015873D01*
X017907Y015824D01*
X018620Y015824D01*
X018737Y015873D01*
X018784Y015919D01*
X018784Y013522D01*
X018623Y013456D01*
X018583Y013416D01*
X011710Y013416D01*
X011710Y013627D01*
X011661Y013744D01*
X011571Y013834D01*
X011454Y013883D01*
X010073Y013883D01*
X009956Y013834D01*
X009866Y013744D01*
X009817Y013627D01*
X009817Y012246D01*
X009866Y012129D01*
X009956Y012039D01*
X010073Y011990D01*
X011454Y011990D01*
X011571Y012039D01*
X011661Y012129D01*
X011710Y012246D01*
X011710Y012457D01*
X018583Y012457D01*
X018623Y012417D01*
X018848Y012324D01*
X019678Y012324D01*
X019903Y012417D01*
X020076Y012590D01*
X020169Y012815D01*
X020169Y013058D01*
X020076Y013284D01*
X019903Y013456D01*
X019743Y013522D01*
X019743Y016368D01*
X019784Y016351D01*
X019784Y014341D01*
X019857Y014165D01*
X020284Y013738D01*
X020284Y010954D01*
X020278Y010875D01*
X020284Y010859D01*
X020284Y010841D01*
X020314Y010769D01*
X020339Y010695D01*
X020350Y010681D01*
X020357Y010665D01*
X020412Y010610D01*
X020464Y010550D01*
X020479Y010543D01*
X020492Y010530D01*
X020564Y010500D01*
X021479Y010043D01*
X021492Y010030D01*
X021524Y010017D01*
X021623Y009917D01*
X021848Y009824D01*
X022678Y009824D01*
X022903Y009917D01*
X023076Y010090D01*
X023169Y010315D01*
X023169Y010558D01*
X023076Y010784D01*
X022903Y010956D01*
X022678Y011049D01*
X021848Y011049D01*
X021718Y010995D01*
X021243Y011233D01*
X021243Y014032D01*
X021170Y014208D01*
X021035Y014343D01*
X020743Y014635D01*
X020743Y016351D01*
X020903Y016417D01*
X020943Y016457D01*
X021205Y016457D01*
X021289Y016373D01*
X021407Y016324D01*
X022120Y016324D01*
X022237Y016373D01*
X022284Y016419D01*
X022284Y015841D01*
X022357Y015665D01*
X022492Y015530D01*
X023345Y014677D01*
X023244Y014577D01*
X023151Y014352D01*
X023151Y014002D01*
X022876Y013727D01*
X022876Y014293D01*
X022827Y014411D01*
X022737Y014501D01*
X022620Y014549D01*
X021907Y014549D01*
X021789Y014501D01*
X021699Y014411D01*
X021651Y014293D01*
X021651Y013580D01*
X021691Y013484D01*
X021623Y013456D01*
X021451Y013284D01*
X021358Y013058D01*
X021358Y012815D01*
X021451Y012590D01*
X021623Y012417D01*
X021848Y012324D01*
X022678Y012324D01*
X022903Y012417D01*
X023003Y012517D01*
X023035Y012530D01*
X023170Y012665D01*
X023567Y013062D01*
X023641Y013031D01*
X023885Y013031D01*
X024110Y013124D01*
X024283Y013297D01*
X024349Y013457D01*
X025620Y013457D01*
X025647Y013430D01*
X025866Y013339D01*
X026660Y013339D01*
X026880Y013430D01*
X026907Y013457D01*
X027359Y013457D01*
X027535Y013530D01*
X028035Y014030D01*
X028170Y014165D01*
X028243Y014341D01*
X028243Y016457D01*
X028620Y016457D01*
X028640Y016437D01*
X028479Y016275D01*
X028388Y016056D01*
X028388Y015818D01*
X028479Y015598D01*
X028640Y015437D01*
X028479Y015275D01*
X028388Y015056D01*
X028388Y014818D01*
X028479Y014598D01*
X028640Y014437D01*
X028479Y014275D01*
X028388Y014056D01*
X028388Y013818D01*
X028479Y013598D01*
X028647Y013430D01*
X028784Y013373D01*
X028784Y012635D01*
X028460Y012311D01*
X028385Y012342D01*
X028141Y012342D01*
X027916Y012249D01*
X027758Y012091D01*
X027731Y012129D01*
X027662Y012197D01*
X027584Y012254D01*
X027498Y012297D01*
X027407Y012327D01*
X027312Y012342D01*
X027263Y012342D01*
X027215Y012342D01*
X027120Y012327D01*
X027028Y012297D01*
X026942Y012254D01*
X026864Y012197D01*
X026796Y012129D01*
X026739Y012051D01*
X026696Y011965D01*
X026666Y011873D01*
X026651Y011778D01*
X026651Y011437D01*
X027263Y011437D01*
X027263Y012342D01*
X027263Y011437D01*
X027263Y011437D01*
X027263Y011437D01*
X026651Y011437D01*
X026651Y011095D01*
X026666Y011000D01*
X026696Y010908D01*
X026739Y010822D01*
X026796Y010744D01*
X026864Y010676D01*
X026942Y010620D01*
X027028Y010576D01*
X027120Y010546D01*
X027215Y010531D01*
X027263Y010531D01*
X027263Y011437D01*
X027263Y011437D01*
X027263Y010531D01*
X027312Y010531D01*
X027407Y010546D01*
X027498Y010576D01*
X027584Y010620D01*
X027662Y010676D01*
X027731Y010744D01*
X027758Y010782D01*
X027916Y010624D01*
X028141Y010531D01*
X028385Y010531D01*
X028610Y010624D01*
X028783Y010797D01*
X028876Y011022D01*
X028876Y011371D01*
X029535Y012030D01*
X029670Y012165D01*
X029743Y012341D01*
X029743Y013373D01*
X029880Y013430D01*
X030048Y013598D01*
X030139Y013818D01*
X030139Y014056D01*
X030048Y014275D01*
X029887Y014437D01*
X030048Y014598D01*
X030139Y014818D01*
X030139Y015056D01*
X030048Y015275D01*
X029887Y015437D01*
X029907Y015457D01*
X030677Y015457D01*
X030744Y015297D01*
X030916Y015124D01*
X031141Y015031D01*
X031385Y015031D01*
X031610Y015124D01*
X031783Y015297D01*
X031849Y015457D01*
X031859Y015457D01*
X032035Y015530D01*
X032170Y015665D01*
X033170Y016665D01*
X033243Y016841D01*
X033243Y019032D01*
X033170Y019208D01*
X033035Y019343D01*
X032035Y020343D01*
X031859Y020416D01*
X030382Y020416D01*
X030301Y020611D01*
X030123Y020789D01*
X029890Y020886D01*
X029637Y020886D01*
X029404Y020789D01*
X029261Y020646D01*
X029247Y020665D01*
X029177Y020736D01*
X029096Y020794D01*
X029007Y020840D01*
X028912Y020870D01*
X028813Y020886D01*
X028763Y020886D01*
X028713Y020886D01*
X028615Y020870D01*
X028520Y020840D01*
X028431Y020794D01*
X028350Y020736D01*
X028279Y020665D01*
X028221Y020584D01*
X028175Y020495D01*
X028145Y020400D01*
X028129Y020302D01*
X028129Y019937D01*
X028763Y019937D01*
X028763Y020886D01*
X028763Y019937D01*
X028763Y019937D01*
X028763Y019937D01*
X028129Y019937D01*
X028129Y019572D01*
X028145Y019473D01*
X028175Y019378D01*
X028221Y019289D01*
X028279Y019208D01*
X028350Y019138D01*
X028431Y019079D01*
X028520Y019034D01*
X028615Y019003D01*
X028713Y018987D01*
X028763Y018987D01*
X028763Y019937D01*
X028763Y019937D01*
X028763Y018987D01*
X028813Y018987D01*
X028912Y019003D01*
X029007Y019034D01*
X029096Y019079D01*
X029177Y019138D01*
X029247Y019208D01*
X029261Y019227D01*
X029404Y019084D01*
X029637Y018987D01*
X029890Y018987D01*
X030123Y019084D01*
X030301Y019262D01*
X030382Y019457D01*
X030695Y019457D01*
X030651Y019352D01*
X030651Y018522D01*
X030657Y018508D01*
X029676Y017528D01*
X029660Y017534D01*
X028866Y017534D01*
X028647Y017443D01*
X028620Y017416D01*
X027668Y017416D01*
X027492Y017343D01*
X027357Y017208D01*
X027284Y017032D01*
X027284Y014635D01*
X027065Y014416D01*
X026907Y014416D01*
X026887Y014437D01*
X027048Y014598D01*
X027139Y014818D01*
X027139Y015056D01*
X027048Y015275D01*
X026887Y015437D01*
X027048Y015598D01*
X027139Y015818D01*
X027139Y016056D01*
X027048Y016275D01*
X026880Y016443D01*
X026879Y016443D01*
X026931Y016481D01*
X026997Y016547D01*
X027053Y016623D01*
X027095Y016707D01*
X027124Y016797D01*
X027139Y016890D01*
X027139Y016937D01*
X027139Y016984D01*
X027124Y017077D01*
X027095Y017166D01*
X027053Y017250D01*
X026997Y017326D01*
X026931Y017392D01*
X026855Y017448D01*
X026771Y017490D01*
X026681Y017519D01*
X026588Y017534D01*
X026263Y017534D01*
X025938Y017534D01*
X025851Y017520D01*
X025876Y017580D01*
X025876Y018293D01*
X025827Y018411D01*
X025737Y018501D01*
X025620Y018549D01*
X025054Y018549D01*
X025170Y018665D01*
X025236Y018824D01*
X025471Y018824D01*
X025697Y018917D01*
X025869Y019090D01*
X025962Y019315D01*
X025962Y019558D01*
X025869Y019784D01*
X025697Y019956D01*
X025694Y019957D01*
X026065Y019957D01*
X026151Y019871D01*
X026151Y019580D01*
X026199Y019463D01*
X026289Y019373D01*
X026407Y019324D01*
X027120Y019324D01*
X027237Y019373D01*
X027327Y019463D01*
X027376Y019580D01*
X027376Y020293D01*
X027327Y020411D01*
X027237Y020501D01*
X027120Y020549D01*
X026829Y020549D01*
X026535Y020843D01*
X026359Y020916D01*
X025376Y020916D01*
X025376Y021145D01*
X025283Y021370D01*
X025110Y021542D01*
X025324Y021269D02*
X034500Y021269D01*
X034500Y020951D02*
X025376Y020951D01*
X024763Y020437D02*
X026263Y020437D01*
X026763Y019937D01*
X026151Y019677D02*
X025913Y019677D01*
X025962Y019358D02*
X026324Y019358D01*
X025819Y019040D02*
X028508Y019040D01*
X028763Y019040D02*
X028763Y019040D01*
X029019Y019040D02*
X029510Y019040D01*
X030016Y019040D02*
X030651Y019040D01*
X030653Y019358D02*
X030341Y019358D01*
X030651Y018721D02*
X025193Y018721D01*
X024763Y018937D02*
X024263Y018437D01*
X023763Y018437D01*
X022763Y018437D02*
X021263Y019937D01*
X021263Y020937D01*
X020651Y020951D02*
X011710Y020951D01*
X011636Y021269D02*
X020651Y021269D01*
X020755Y021588D02*
X011243Y021588D01*
X010284Y021588D02*
X008397Y021588D01*
X008397Y021906D02*
X010284Y021906D01*
X010284Y022225D02*
X008397Y022225D01*
X008397Y022543D02*
X009951Y022543D01*
X009817Y022862D02*
X008397Y022862D01*
X008397Y023180D02*
X009817Y023180D01*
X009817Y023499D02*
X008397Y023499D01*
X008397Y023817D02*
X009817Y023817D01*
X009821Y024136D02*
X008397Y024136D01*
X008397Y025728D02*
X009817Y025728D01*
X009817Y026047D02*
X008397Y026047D01*
X008397Y026365D02*
X010030Y026365D01*
X011497Y026365D02*
X011514Y026365D01*
X011832Y026684D02*
X008397Y026684D01*
X011354Y027958D02*
X031673Y027958D01*
X031581Y028276D02*
X011446Y028276D01*
X011446Y028595D02*
X031580Y028595D01*
X031672Y028913D02*
X011355Y028913D01*
X011142Y029232D02*
X031884Y029232D01*
X032346Y029550D02*
X010681Y029550D01*
X010763Y023437D02*
X010763Y020437D01*
X015763Y020437D01*
X016263Y019937D01*
X016763Y019937D01*
X016178Y019358D02*
X011514Y019358D01*
X011541Y019347D02*
X011483Y019371D01*
X011422Y019383D01*
X010818Y019383D01*
X010818Y018492D01*
X010708Y018492D01*
X010708Y019383D01*
X010105Y019383D01*
X010043Y019371D01*
X009985Y019347D01*
X009933Y019312D01*
X009888Y019267D01*
X009853Y019215D01*
X009829Y019157D01*
X009817Y019095D01*
X009817Y018492D01*
X010708Y018492D01*
X010708Y018382D01*
X009817Y018382D01*
X009817Y017778D01*
X009829Y017717D01*
X009853Y017658D01*
X009888Y017606D01*
X009933Y017562D01*
X009985Y017527D01*
X010043Y017503D01*
X010105Y017490D01*
X010708Y017490D01*
X010708Y018382D01*
X010818Y018382D01*
X010818Y018492D01*
X011710Y018492D01*
X011710Y019095D01*
X011697Y019157D01*
X011673Y019215D01*
X011638Y019267D01*
X011594Y019312D01*
X011541Y019347D01*
X011710Y019040D02*
X016485Y019040D01*
X017041Y019040D02*
X017485Y019040D01*
X017763Y019040D02*
X017763Y019040D01*
X018041Y019040D02*
X018188Y019040D01*
X017870Y018721D02*
X011710Y018721D01*
X011710Y018382D02*
X010818Y018382D01*
X010818Y017490D01*
X011422Y017490D01*
X011483Y017503D01*
X011541Y017527D01*
X011594Y017562D01*
X011638Y017606D01*
X011673Y017658D01*
X011697Y017717D01*
X011710Y017778D01*
X011710Y018382D01*
X011710Y018084D02*
X017233Y018084D01*
X017551Y018403D02*
X010818Y018403D01*
X010708Y018403D02*
X008397Y018403D01*
X008397Y018721D02*
X009817Y018721D01*
X009817Y019040D02*
X008397Y019040D01*
X008397Y019358D02*
X010013Y019358D01*
X009846Y019677D02*
X008397Y019677D01*
X008397Y019995D02*
X009817Y019995D01*
X009817Y020314D02*
X008397Y020314D01*
X008397Y020632D02*
X009817Y020632D01*
X009817Y020951D02*
X008397Y020951D01*
X008397Y021269D02*
X009890Y021269D01*
X011681Y019677D02*
X015845Y019677D01*
X017763Y019677D02*
X017763Y019677D01*
X017763Y019995D02*
X017763Y019995D01*
X017763Y020314D02*
X017763Y020314D01*
X017763Y020632D02*
X017763Y020632D01*
X018763Y019937D02*
X018763Y018937D01*
X017263Y017437D01*
X018263Y016437D01*
X018249Y017129D02*
X018784Y017129D01*
X018784Y017447D02*
X017952Y017447D01*
X018270Y017766D02*
X018914Y017766D01*
X019233Y018084D02*
X018589Y018084D01*
X018907Y018403D02*
X019570Y018403D01*
X019193Y018721D02*
X021801Y018721D01*
X022119Y018403D02*
X020957Y018403D01*
X021158Y018084D02*
X022284Y018084D01*
X022284Y017766D02*
X021149Y017766D01*
X021236Y017447D02*
X020933Y017447D01*
X020263Y016937D02*
X020263Y014437D01*
X020763Y013937D01*
X020763Y010937D01*
X021763Y010437D01*
X022263Y010437D01*
X023086Y010759D02*
X026786Y010759D01*
X026654Y011077D02*
X021554Y011077D01*
X021243Y011396D02*
X026651Y011396D01*
X026651Y011714D02*
X021243Y011714D01*
X021243Y012033D02*
X026730Y012033D01*
X027263Y012033D02*
X027263Y012033D01*
X027263Y011714D02*
X027263Y011714D01*
X027263Y011396D02*
X027263Y011396D01*
X027263Y011077D02*
X027263Y011077D01*
X027263Y010759D02*
X027263Y010759D01*
X027741Y010759D02*
X027782Y010759D01*
X028263Y011437D02*
X029263Y012437D01*
X029263Y013937D01*
X028784Y013307D02*
X024287Y013307D01*
X023763Y013937D02*
X027263Y013937D01*
X027763Y014437D01*
X027763Y016937D01*
X029263Y016937D01*
X029763Y016937D01*
X031263Y018437D01*
X031263Y018937D01*
X030551Y018403D02*
X025831Y018403D01*
X025876Y018084D02*
X030233Y018084D01*
X029914Y017766D02*
X025876Y017766D01*
X026263Y017534D02*
X026263Y016937D01*
X026263Y016937D01*
X026263Y016937D01*
X025388Y016937D01*
X025388Y016984D01*
X025402Y017077D01*
X025431Y017166D01*
X025474Y017250D01*
X025528Y017324D01*
X024907Y017324D01*
X024852Y017347D01*
X024441Y016937D01*
X024962Y016416D01*
X025620Y016416D01*
X025647Y016443D01*
X025647Y016443D01*
X025596Y016481D01*
X025529Y016547D01*
X025474Y016623D01*
X025431Y016707D01*
X025402Y016797D01*
X025388Y016890D01*
X025388Y016937D01*
X026263Y016937D01*
X026263Y017534D01*
X026263Y017447D02*
X026263Y017447D01*
X026263Y017129D02*
X026263Y017129D01*
X026263Y016937D02*
X027139Y016937D01*
X026263Y016937D01*
X026263Y016937D01*
X026855Y017447D02*
X028656Y017447D01*
X027324Y017129D02*
X027107Y017129D01*
X027126Y016810D02*
X027284Y016810D01*
X027284Y016492D02*
X026942Y016492D01*
X027090Y016173D02*
X027284Y016173D01*
X027284Y015855D02*
X027139Y015855D01*
X027284Y015536D02*
X026986Y015536D01*
X027072Y015218D02*
X027284Y015218D01*
X027284Y014899D02*
X027139Y014899D01*
X027229Y014581D02*
X027031Y014581D01*
X026263Y014937D02*
X023763Y014937D01*
X022763Y015937D01*
X022763Y018437D01*
X022569Y019358D02*
X022520Y019358D01*
X022612Y019677D02*
X022201Y019677D01*
X021883Y019995D02*
X022924Y019995D01*
X023763Y019995D02*
X023763Y019995D01*
X024016Y019995D02*
X024339Y019995D01*
X024151Y020314D02*
X021790Y020314D01*
X021876Y020632D02*
X024151Y020632D01*
X024151Y020951D02*
X021876Y020951D01*
X021876Y021269D02*
X024202Y021269D01*
X024526Y021588D02*
X021772Y021588D01*
X020651Y020632D02*
X019292Y020632D01*
X019403Y020314D02*
X020737Y020314D01*
X020784Y019995D02*
X019403Y019995D01*
X019403Y019677D02*
X020852Y019677D01*
X021164Y019358D02*
X019348Y019358D01*
X019243Y019040D02*
X021482Y019040D01*
X020263Y017937D02*
X019763Y017937D01*
X019263Y017437D01*
X019263Y012937D01*
X010763Y012937D01*
X009817Y012988D02*
X008397Y012988D01*
X008397Y012670D02*
X009817Y012670D01*
X009817Y012351D02*
X008397Y012351D01*
X008397Y012033D02*
X009971Y012033D01*
X009817Y013307D02*
X008397Y013307D01*
X008397Y013625D02*
X009817Y013625D01*
X009985Y014027D02*
X010043Y014003D01*
X010105Y013990D01*
X010708Y013990D01*
X010708Y014882D01*
X009817Y014882D01*
X009817Y014278D01*
X009829Y014217D01*
X009853Y014158D01*
X009888Y014106D01*
X009933Y014062D01*
X009985Y014027D01*
X009820Y014262D02*
X008397Y014262D01*
X008397Y013944D02*
X018784Y013944D01*
X018784Y014262D02*
X011706Y014262D01*
X011710Y014278D02*
X011710Y014882D01*
X010818Y014882D01*
X010818Y014992D01*
X010708Y014992D01*
X010708Y015883D01*
X010105Y015883D01*
X010043Y015871D01*
X009985Y015847D01*
X009933Y015812D01*
X009888Y015767D01*
X009853Y015715D01*
X009829Y015657D01*
X009817Y015595D01*
X009817Y014992D01*
X010708Y014992D01*
X010708Y014882D01*
X010818Y014882D01*
X010818Y013990D01*
X011422Y013990D01*
X011483Y014003D01*
X011541Y014027D01*
X011594Y014062D01*
X011638Y014106D01*
X011673Y014158D01*
X011697Y014217D01*
X011710Y014278D01*
X011710Y014581D02*
X018784Y014581D01*
X018784Y014899D02*
X010818Y014899D01*
X010818Y014992D02*
X011710Y014992D01*
X011710Y015595D01*
X011697Y015657D01*
X011673Y015715D01*
X011638Y015767D01*
X011594Y015812D01*
X011541Y015847D01*
X011483Y015871D01*
X011422Y015883D01*
X010818Y015883D01*
X010818Y014992D01*
X010708Y014899D02*
X008397Y014899D01*
X008397Y014581D02*
X009817Y014581D01*
X009817Y015218D02*
X008397Y015218D01*
X008397Y015536D02*
X009817Y015536D01*
X010005Y015855D02*
X008397Y015855D01*
X008397Y016173D02*
X015871Y016173D01*
X015815Y016492D02*
X008397Y016492D01*
X008397Y016810D02*
X015935Y016810D01*
X015889Y017129D02*
X008397Y017129D01*
X008397Y017447D02*
X015814Y017447D01*
X015898Y017766D02*
X011707Y017766D01*
X010818Y017766D02*
X010708Y017766D01*
X010708Y018084D02*
X010818Y018084D01*
X010818Y018721D02*
X010708Y018721D01*
X010708Y019040D02*
X010818Y019040D01*
X010818Y019358D02*
X010708Y019358D01*
X009817Y018084D02*
X008397Y018084D01*
X008397Y017766D02*
X009820Y017766D01*
X010708Y015855D02*
X010818Y015855D01*
X010818Y015536D02*
X010708Y015536D01*
X010708Y015218D02*
X010818Y015218D01*
X010818Y014581D02*
X010708Y014581D01*
X010708Y014262D02*
X010818Y014262D01*
X011710Y013625D02*
X018784Y013625D01*
X019743Y013625D02*
X020284Y013625D01*
X020284Y013307D02*
X020053Y013307D01*
X020169Y012988D02*
X020284Y012988D01*
X020284Y012670D02*
X020109Y012670D01*
X020284Y012351D02*
X019744Y012351D01*
X020284Y012033D02*
X011556Y012033D01*
X011710Y012351D02*
X018783Y012351D01*
X018922Y011049D02*
X018827Y011034D01*
X018735Y011004D01*
X018649Y010961D01*
X018571Y010904D01*
X018503Y010836D01*
X018446Y010758D01*
X018403Y010672D01*
X018373Y010580D01*
X018358Y010485D01*
X018358Y010437D01*
X019263Y010437D01*
X019263Y011049D01*
X018922Y011049D01*
X019263Y011049D02*
X019263Y010437D01*
X019263Y010437D01*
X019263Y010437D01*
X018358Y010437D01*
X018358Y010388D01*
X018373Y010293D01*
X018403Y010201D01*
X018446Y010116D01*
X018503Y010038D01*
X018571Y009969D01*
X018649Y009913D01*
X018735Y009869D01*
X018827Y009839D01*
X018922Y009824D01*
X019263Y009824D01*
X019263Y010437D01*
X019263Y010437D01*
X020169Y010437D01*
X020169Y010485D01*
X020154Y010580D01*
X020124Y010672D01*
X020080Y010758D01*
X020024Y010836D01*
X019955Y010904D01*
X019877Y010961D01*
X019792Y011004D01*
X019700Y011034D01*
X019605Y011049D01*
X019263Y011049D01*
X019263Y010759D02*
X019263Y010759D01*
X019263Y010440D02*
X019263Y010440D01*
X019263Y010437D02*
X019263Y010437D01*
X019263Y009824D01*
X019605Y009824D01*
X019700Y009839D01*
X019792Y009869D01*
X019877Y009913D01*
X019955Y009969D01*
X020024Y010038D01*
X020080Y010116D01*
X020124Y010201D01*
X020154Y010293D01*
X020169Y010388D01*
X020169Y010437D01*
X019263Y010437D01*
X019263Y010122D02*
X019263Y010122D01*
X018443Y010122D02*
X008397Y010122D01*
X008397Y010440D02*
X018358Y010440D01*
X018447Y010759D02*
X008397Y010759D01*
X008397Y011077D02*
X020284Y011077D01*
X020284Y011396D02*
X008397Y011396D01*
X008397Y011714D02*
X020284Y011714D01*
X021243Y012351D02*
X021783Y012351D01*
X021418Y012670D02*
X021243Y012670D01*
X021243Y012988D02*
X021358Y012988D01*
X021243Y013307D02*
X021474Y013307D01*
X021651Y013625D02*
X021243Y013625D01*
X021243Y013944D02*
X021651Y013944D01*
X021651Y014262D02*
X021116Y014262D01*
X020797Y014581D02*
X023248Y014581D01*
X023151Y014262D02*
X022876Y014262D01*
X022876Y013944D02*
X023092Y013944D01*
X023763Y013937D02*
X022763Y012937D01*
X022263Y012937D01*
X022263Y013937D01*
X023123Y014899D02*
X020743Y014899D01*
X020743Y015218D02*
X022804Y015218D01*
X022492Y015530D02*
X022492Y015530D01*
X022486Y015536D02*
X020743Y015536D01*
X020743Y015855D02*
X022284Y015855D01*
X022284Y016173D02*
X020743Y016173D01*
X020263Y016937D02*
X021763Y016937D01*
X023763Y016937D02*
X024763Y017937D01*
X025263Y017937D01*
X025419Y017129D02*
X024633Y017129D01*
X024568Y016810D02*
X025400Y016810D01*
X025585Y016492D02*
X024886Y016492D01*
X024763Y015937D02*
X026263Y015937D01*
X024763Y015937D02*
X023763Y016937D01*
X024763Y018937D02*
X024763Y019437D01*
X023763Y019677D02*
X023763Y019677D01*
X026746Y020632D02*
X028256Y020632D01*
X028131Y020314D02*
X027367Y020314D01*
X027376Y019995D02*
X028129Y019995D01*
X028129Y019677D02*
X027376Y019677D01*
X027202Y019358D02*
X028186Y019358D01*
X028763Y019358D02*
X028763Y019358D01*
X028763Y019677D02*
X028763Y019677D01*
X028763Y019995D02*
X028763Y019995D01*
X028763Y020314D02*
X028763Y020314D01*
X028763Y020632D02*
X028763Y020632D01*
X029763Y019937D02*
X031763Y019937D01*
X032763Y018937D01*
X032763Y016937D01*
X031763Y015937D01*
X031263Y015937D01*
X029263Y015937D01*
X029263Y014937D01*
X028496Y014581D02*
X028243Y014581D01*
X028243Y014899D02*
X028388Y014899D01*
X028455Y015218D02*
X028243Y015218D01*
X028243Y015536D02*
X028541Y015536D01*
X028388Y015855D02*
X028243Y015855D01*
X028243Y016173D02*
X028436Y016173D01*
X030072Y015218D02*
X030823Y015218D01*
X030139Y014899D02*
X034500Y014899D01*
X034500Y014581D02*
X030031Y014581D01*
X030053Y014262D02*
X034500Y014262D01*
X034500Y013944D02*
X030139Y013944D01*
X030059Y013625D02*
X034500Y013625D01*
X034500Y013307D02*
X029743Y013307D01*
X029743Y012988D02*
X034500Y012988D01*
X034500Y012670D02*
X029743Y012670D01*
X029743Y012351D02*
X034500Y012351D01*
X034500Y012033D02*
X029537Y012033D01*
X029219Y011714D02*
X034500Y011714D01*
X034500Y011396D02*
X028900Y011396D01*
X028876Y011077D02*
X034500Y011077D01*
X034500Y010759D02*
X028745Y010759D01*
X028500Y012351D02*
X022744Y012351D01*
X023174Y012670D02*
X028784Y012670D01*
X028784Y012988D02*
X023493Y012988D01*
X023169Y010440D02*
X034500Y010440D01*
X034500Y010122D02*
X023089Y010122D01*
X021321Y010122D02*
X020083Y010122D01*
X020169Y010440D02*
X020684Y010440D01*
X020317Y010759D02*
X020080Y010759D01*
X020078Y013944D02*
X019743Y013944D01*
X019743Y014262D02*
X019817Y014262D01*
X019784Y014581D02*
X019743Y014581D01*
X019743Y014899D02*
X019784Y014899D01*
X019784Y015218D02*
X019743Y015218D01*
X019743Y015536D02*
X019784Y015536D01*
X019784Y015855D02*
X019743Y015855D01*
X019743Y016173D02*
X019784Y016173D01*
X018784Y015855D02*
X018694Y015855D01*
X018784Y015536D02*
X011710Y015536D01*
X011710Y015218D02*
X018784Y015218D01*
X017833Y015855D02*
X017334Y015855D01*
X016763Y015855D02*
X016763Y015855D01*
X016763Y016173D02*
X016763Y016173D01*
X016193Y015855D02*
X011522Y015855D01*
X016763Y017437D02*
X017263Y017437D01*
X017763Y019358D02*
X017763Y019358D01*
X021263Y023937D02*
X021263Y024937D01*
X022263Y025937D01*
X024263Y025937D01*
X023473Y025410D02*
X022414Y025410D01*
X022096Y025091D02*
X023282Y025091D01*
X023286Y024773D02*
X021777Y024773D01*
X030280Y020632D02*
X034500Y020632D01*
X034500Y020314D02*
X032064Y020314D01*
X032383Y019995D02*
X034500Y019995D01*
X034500Y019677D02*
X032701Y019677D01*
X033020Y019358D02*
X034500Y019358D01*
X034500Y019040D02*
X033240Y019040D01*
X033243Y018721D02*
X034500Y018721D01*
X034500Y018403D02*
X033243Y018403D01*
X033243Y018084D02*
X034500Y018084D01*
X034500Y017766D02*
X033243Y017766D01*
X033243Y017447D02*
X034500Y017447D01*
X034500Y017129D02*
X033243Y017129D01*
X033230Y016810D02*
X034500Y016810D01*
X034500Y016492D02*
X032996Y016492D01*
X032678Y016173D02*
X034500Y016173D01*
X034500Y015855D02*
X032359Y015855D01*
X032041Y015536D02*
X034500Y015536D01*
X034500Y015218D02*
X031704Y015218D01*
X028473Y014262D02*
X028210Y014262D01*
X028388Y013944D02*
X027948Y013944D01*
X027630Y013625D02*
X028467Y013625D01*
X032306Y010040D02*
X032608Y010120D01*
X032919Y010120D01*
X033220Y010040D01*
X033490Y009884D01*
X033710Y009663D01*
X033866Y009394D01*
X033947Y009092D01*
X033947Y008781D01*
X033866Y008480D01*
X033710Y008210D01*
X033490Y007990D01*
X033220Y007834D01*
X032919Y007753D01*
X032608Y007753D01*
X032306Y007834D01*
X032037Y007990D01*
X031816Y008210D01*
X031660Y008480D01*
X031580Y008781D01*
X031580Y009092D01*
X031660Y009394D01*
X031816Y009663D01*
X032037Y009884D01*
X032306Y010040D01*
X031956Y009803D02*
X011071Y009803D01*
X010990Y009884D02*
X010720Y010040D01*
X010419Y010120D01*
X010108Y010120D01*
X009806Y010040D01*
X009537Y009884D01*
X009316Y009663D01*
X009160Y009394D01*
X009080Y009092D01*
X009080Y008781D01*
X009160Y008480D01*
X009316Y008210D01*
X009537Y007990D01*
X009806Y007834D01*
X010108Y007753D01*
X010419Y007753D01*
X010720Y007834D01*
X010990Y007990D01*
X011210Y008210D01*
X011366Y008480D01*
X011447Y008781D01*
X011447Y009092D01*
X011366Y009394D01*
X011210Y009663D01*
X010990Y009884D01*
X011314Y009485D02*
X031713Y009485D01*
X031599Y009166D02*
X011427Y009166D01*
X011447Y008848D02*
X031580Y008848D01*
X031647Y008529D02*
X011380Y008529D01*
X011211Y008211D02*
X031816Y008211D01*
X032205Y007892D02*
X010821Y007892D01*
X009705Y007892D02*
X008397Y007892D01*
X008397Y007574D02*
X034500Y007574D01*
X034500Y007892D02*
X033321Y007892D01*
X033711Y008211D02*
X034500Y008211D01*
X034500Y008529D02*
X033880Y008529D01*
X033947Y008848D02*
X034500Y008848D01*
X034500Y009166D02*
X033927Y009166D01*
X033814Y009485D02*
X034500Y009485D01*
X034500Y009803D02*
X033571Y009803D01*
X034500Y023499D02*
X032285Y023499D01*
X032604Y023817D02*
X034500Y023817D01*
X034500Y024136D02*
X032791Y024136D01*
X032908Y024454D02*
X034500Y024454D01*
X034500Y024773D02*
X032973Y024773D01*
X032973Y025091D02*
X034500Y025091D01*
X034500Y025410D02*
X032910Y025410D01*
X032796Y025728D02*
X034500Y025728D01*
X034500Y026047D02*
X032612Y026047D01*
X032295Y026365D02*
X034500Y026365D01*
X034500Y027321D02*
X033172Y027321D01*
X033640Y027639D02*
X034500Y027639D01*
X034500Y027958D02*
X033854Y027958D01*
X033946Y028276D02*
X034500Y028276D01*
X034500Y028595D02*
X033946Y028595D01*
X033855Y028913D02*
X034500Y028913D01*
X034500Y029232D02*
X033642Y029232D01*
X033181Y029550D02*
X034500Y029550D01*
X009456Y009803D02*
X008397Y009803D01*
X008397Y009485D02*
X009213Y009485D01*
X009099Y009166D02*
X008397Y009166D01*
X008397Y008848D02*
X009080Y008848D01*
X009147Y008529D02*
X008397Y008529D01*
X008397Y008211D02*
X009316Y008211D01*
D17*
X018263Y016437D03*
X021763Y016937D03*
X023763Y018437D03*
X025263Y017937D03*
X026763Y019937D03*
X022263Y013937D03*
M02*
