G75*
%MOIN*%
%OFA0B0*%
%FSLAX24Y24*%
%IPPOS*%
%LPD*%
%AMOC8*
5,1,8,0,0,1.08239X$1,22.5*
%
%ADD10C,0.0640*%
%ADD11C,0.0556*%
%ADD12C,0.0586*%
%ADD13C,0.0630*%
%ADD14R,0.1254X0.1254*%
%ADD15C,0.0672*%
%ADD16C,0.0320*%
%ADD17R,0.0586X0.0586*%
D10*
X010858Y013711D02*
X010858Y014351D01*
X011858Y014351D02*
X011858Y013711D01*
X012858Y013711D02*
X012858Y014351D01*
D11*
X020080Y011031D02*
X020636Y011031D01*
X020636Y010031D02*
X020080Y010031D01*
X020080Y009031D02*
X020636Y009031D01*
X020636Y008031D02*
X020080Y008031D01*
X023080Y008031D02*
X023636Y008031D01*
X023636Y009031D02*
X023080Y009031D01*
X023080Y010031D02*
X023636Y010031D01*
X023636Y011031D02*
X023080Y011031D01*
D12*
X025358Y010324D02*
X025358Y009738D01*
X025358Y012738D02*
X025358Y013324D01*
X019444Y013531D02*
X018858Y013531D01*
X018858Y014531D02*
X018858Y015117D01*
X017858Y013531D02*
X017272Y013531D01*
X015358Y014738D02*
X015358Y015324D01*
X015358Y017738D02*
X015358Y018324D01*
X014651Y012031D02*
X014065Y012031D01*
X014065Y011031D02*
X014651Y011031D01*
X017858Y011324D02*
X017858Y010738D01*
X017858Y008324D02*
X017858Y007738D01*
X016651Y007031D02*
X016065Y007031D01*
X013651Y007031D02*
X013065Y007031D01*
X013065Y004531D02*
X013651Y004531D01*
X016065Y004531D02*
X016651Y004531D01*
X021358Y005238D02*
X021358Y005824D01*
X022358Y005824D02*
X022358Y005238D01*
D13*
X022858Y013716D02*
X022858Y014346D01*
X023858Y014346D02*
X023858Y013716D01*
X011173Y011531D02*
X010543Y011531D01*
X010543Y010531D02*
X011173Y010531D01*
D14*
X004858Y009031D03*
X004858Y007031D03*
X004858Y012531D03*
X004858Y014531D03*
X004858Y017531D03*
X004858Y019531D03*
D15*
X018022Y019031D02*
X018694Y019031D01*
X018694Y018031D02*
X018022Y018031D01*
X018022Y020031D02*
X018694Y020031D01*
D16*
X002492Y023897D02*
X002492Y001665D01*
X028594Y001665D01*
X028594Y023897D01*
X002492Y023897D01*
X002492Y023645D02*
X003940Y023645D01*
X003901Y023634D02*
X003631Y023478D01*
X003411Y023258D01*
X003255Y022988D01*
X003174Y022687D01*
X003174Y022375D01*
X003255Y022074D01*
X003411Y021804D01*
X003631Y021584D01*
X003901Y021428D01*
X004202Y021348D01*
X004514Y021348D01*
X004815Y021428D01*
X005085Y021584D01*
X005305Y021804D01*
X005461Y022074D01*
X005541Y022375D01*
X005541Y022687D01*
X005461Y022988D01*
X005305Y023258D01*
X005085Y023478D01*
X004815Y023634D01*
X004514Y023715D01*
X004202Y023715D01*
X003901Y023634D01*
X003479Y023326D02*
X002492Y023326D01*
X002492Y023008D02*
X003266Y023008D01*
X003175Y022689D02*
X002492Y022689D01*
X002492Y022371D02*
X003175Y022371D01*
X003268Y022052D02*
X002492Y022052D01*
X002492Y021734D02*
X003481Y021734D01*
X003950Y021415D02*
X002492Y021415D01*
X002492Y021097D02*
X006245Y021097D01*
X006564Y021415D02*
X004766Y021415D01*
X005234Y021734D02*
X006882Y021734D01*
X007086Y021938D02*
X007262Y022011D01*
X013953Y022011D01*
X014129Y021938D01*
X014264Y021803D01*
X014556Y021511D01*
X020453Y021511D01*
X020629Y021438D01*
X020764Y021303D01*
X021264Y020803D01*
X021337Y020626D01*
X021337Y019436D01*
X021264Y019260D01*
X021129Y019125D01*
X020629Y018625D01*
X020453Y018552D01*
X019141Y018552D01*
X019120Y018530D01*
X019127Y018525D01*
X019188Y018464D01*
X019240Y018396D01*
X019283Y018322D01*
X019316Y018242D01*
X019338Y018159D01*
X019349Y018074D01*
X019349Y018031D01*
X018358Y018031D01*
X018358Y018031D01*
X018358Y017376D01*
X018737Y017376D01*
X018822Y017387D01*
X018905Y017409D01*
X018984Y017442D01*
X019059Y017485D01*
X019127Y017537D01*
X019188Y017598D01*
X019240Y017666D01*
X019283Y017741D01*
X019316Y017820D01*
X019338Y017903D01*
X019349Y017988D01*
X019349Y018031D01*
X018358Y018031D01*
X018358Y018031D01*
X018358Y017376D01*
X017979Y017376D01*
X017894Y017387D01*
X017811Y017409D01*
X017731Y017442D01*
X017657Y017485D01*
X017589Y017537D01*
X017528Y017598D01*
X017476Y017666D01*
X017433Y017741D01*
X017400Y017820D01*
X017378Y017903D01*
X017366Y017988D01*
X017366Y018031D01*
X018358Y018031D01*
X018358Y018031D01*
X017366Y018031D01*
X017366Y018074D01*
X017378Y018159D01*
X017400Y018242D01*
X017433Y018322D01*
X017476Y018396D01*
X017528Y018464D01*
X017589Y018525D01*
X017596Y018530D01*
X017466Y018660D01*
X017366Y018901D01*
X017366Y019162D01*
X017466Y019402D01*
X017595Y019531D01*
X017574Y019552D01*
X016556Y019552D01*
X015837Y018833D01*
X015837Y018711D01*
X015877Y018671D01*
X015970Y018446D01*
X015970Y017616D01*
X015877Y017391D01*
X015705Y017219D01*
X015480Y017125D01*
X015236Y017125D01*
X015011Y017219D01*
X014839Y017391D01*
X014745Y017616D01*
X014745Y018446D01*
X014839Y018671D01*
X014878Y018711D01*
X014878Y019126D01*
X014951Y019303D01*
X016086Y020438D01*
X016262Y020511D01*
X017574Y020511D01*
X017615Y020552D01*
X014262Y020552D01*
X014086Y020625D01*
X013659Y021052D01*
X013297Y021052D01*
X013306Y021042D01*
X013544Y020630D01*
X013668Y020169D01*
X013668Y019693D01*
X013544Y019232D01*
X013306Y018820D01*
X012969Y018483D01*
X012556Y018244D01*
X012096Y018121D01*
X011620Y018121D01*
X011159Y018244D01*
X010746Y018483D01*
X010409Y018820D01*
X010171Y019232D01*
X010048Y019693D01*
X010048Y020169D01*
X010171Y020630D01*
X010409Y021042D01*
X010419Y021052D01*
X007556Y021052D01*
X005804Y019299D01*
X005804Y018841D01*
X005755Y018723D01*
X005666Y018633D01*
X005548Y018585D01*
X004167Y018585D01*
X004050Y018633D01*
X003960Y018723D01*
X003912Y018841D01*
X003912Y020222D01*
X003960Y020339D01*
X004050Y020429D01*
X004167Y020477D01*
X005548Y020477D01*
X005603Y020455D01*
X007086Y021938D01*
X007358Y021531D02*
X005358Y019531D01*
X004858Y019531D01*
X003912Y019504D02*
X002492Y019504D01*
X002492Y019186D02*
X003912Y019186D01*
X003912Y018867D02*
X002492Y018867D01*
X002492Y018549D02*
X010681Y018549D01*
X010382Y018867D02*
X005804Y018867D01*
X005804Y019186D02*
X010198Y019186D01*
X010098Y019504D02*
X006009Y019504D01*
X006327Y019823D02*
X010048Y019823D01*
X010048Y020141D02*
X006646Y020141D01*
X006964Y020460D02*
X010126Y020460D01*
X010257Y020778D02*
X007283Y020778D01*
X007358Y021531D02*
X013858Y021531D01*
X014358Y021031D01*
X020358Y021031D01*
X020858Y020531D01*
X020858Y019531D01*
X020358Y019031D01*
X018358Y019031D01*
X019138Y018549D02*
X023513Y018549D01*
X023571Y018332D02*
X023809Y017920D01*
X024146Y017583D01*
X024559Y017344D01*
X025020Y017221D01*
X025496Y017221D01*
X025956Y017344D01*
X026369Y017583D01*
X026706Y017920D01*
X026944Y018332D01*
X027068Y018793D01*
X027068Y019269D01*
X026944Y019730D01*
X026706Y020142D01*
X026369Y020479D01*
X025956Y020718D01*
X025496Y020841D01*
X025020Y020841D01*
X024559Y020718D01*
X024146Y020479D01*
X023809Y020142D01*
X023571Y019730D01*
X023448Y019269D01*
X023448Y018793D01*
X023571Y018332D01*
X023630Y018230D02*
X019319Y018230D01*
X019339Y017912D02*
X023818Y017912D01*
X024136Y017593D02*
X019183Y017593D01*
X018358Y017593D02*
X018358Y017593D01*
X018358Y017912D02*
X018358Y017912D01*
X017533Y017593D02*
X015961Y017593D01*
X015970Y017912D02*
X017376Y017912D01*
X017397Y018230D02*
X015970Y018230D01*
X015928Y018549D02*
X017577Y018549D01*
X017380Y018867D02*
X015872Y018867D01*
X016190Y019186D02*
X017376Y019186D01*
X017568Y019504D02*
X016509Y019504D01*
X016358Y020031D02*
X015358Y019031D01*
X015358Y018031D01*
X014788Y018549D02*
X013035Y018549D01*
X013334Y018867D02*
X014878Y018867D01*
X014903Y019186D02*
X013517Y019186D01*
X013617Y019504D02*
X015153Y019504D01*
X015471Y019823D02*
X013668Y019823D01*
X013668Y020141D02*
X015790Y020141D01*
X016139Y020460D02*
X013590Y020460D01*
X013459Y020778D02*
X013933Y020778D01*
X014333Y021734D02*
X025981Y021734D01*
X025911Y021804D02*
X026131Y021584D01*
X026401Y021428D01*
X026702Y021348D01*
X027014Y021348D01*
X027315Y021428D01*
X027585Y021584D01*
X027805Y021804D01*
X027961Y022074D01*
X028041Y022375D01*
X028041Y022687D01*
X027961Y022988D01*
X027805Y023258D01*
X027585Y023478D01*
X027315Y023634D01*
X027014Y023715D01*
X026702Y023715D01*
X026401Y023634D01*
X026131Y023478D01*
X025911Y023258D01*
X025755Y022988D01*
X025674Y022687D01*
X025674Y022375D01*
X025755Y022074D01*
X025911Y021804D01*
X025768Y022052D02*
X005448Y022052D01*
X005540Y022371D02*
X025675Y022371D01*
X025675Y022689D02*
X005541Y022689D01*
X005449Y023008D02*
X025766Y023008D01*
X025979Y023326D02*
X005237Y023326D01*
X004775Y023645D02*
X026440Y023645D01*
X027275Y023645D02*
X028594Y023645D01*
X028594Y023326D02*
X027737Y023326D01*
X027949Y023008D02*
X028594Y023008D01*
X028594Y022689D02*
X028041Y022689D01*
X028040Y022371D02*
X028594Y022371D01*
X028594Y022052D02*
X027948Y022052D01*
X027734Y021734D02*
X028594Y021734D01*
X028594Y021415D02*
X027266Y021415D01*
X026450Y021415D02*
X020652Y021415D01*
X020970Y021097D02*
X028594Y021097D01*
X028594Y020778D02*
X025731Y020778D01*
X026389Y020460D02*
X028594Y020460D01*
X028594Y020141D02*
X026707Y020141D01*
X026891Y019823D02*
X028594Y019823D01*
X028594Y019504D02*
X027005Y019504D01*
X027068Y019186D02*
X028594Y019186D01*
X028594Y018867D02*
X027068Y018867D01*
X027002Y018549D02*
X028594Y018549D01*
X028594Y018230D02*
X026885Y018230D01*
X026698Y017912D02*
X028594Y017912D01*
X028594Y017593D02*
X026380Y017593D01*
X025696Y017275D02*
X028594Y017275D01*
X028594Y016956D02*
X005804Y016956D01*
X005804Y016841D02*
X005804Y018222D01*
X005755Y018339D01*
X005666Y018429D01*
X005548Y018477D01*
X004167Y018477D01*
X004050Y018429D01*
X003960Y018339D01*
X003912Y018222D01*
X003912Y016841D01*
X003960Y016723D01*
X004050Y016633D01*
X004167Y016585D01*
X004378Y016585D01*
X004378Y015477D01*
X004167Y015477D01*
X004050Y015429D01*
X003960Y015339D01*
X003912Y015222D01*
X003912Y013841D01*
X003960Y013723D01*
X004050Y013633D01*
X004167Y013585D01*
X005548Y013585D01*
X005666Y013633D01*
X005755Y013723D01*
X005804Y013841D01*
X005804Y014052D01*
X009659Y014052D01*
X009951Y013760D01*
X010086Y013625D01*
X010225Y013567D01*
X010316Y013349D01*
X010496Y013169D01*
X010731Y013072D01*
X010985Y013072D01*
X011220Y013169D01*
X011360Y013309D01*
X011376Y013289D01*
X011435Y013229D01*
X011502Y013178D01*
X011574Y013136D01*
X011652Y013104D01*
X011733Y013083D01*
X011816Y013072D01*
X011858Y013072D01*
X011900Y013072D01*
X011983Y013083D01*
X012064Y013104D01*
X012141Y013136D01*
X012214Y013178D01*
X012280Y013229D01*
X012340Y013289D01*
X012355Y013309D01*
X012378Y013286D01*
X012378Y013230D01*
X011310Y012161D01*
X011299Y012166D01*
X010417Y012166D01*
X010183Y012069D01*
X010005Y011891D01*
X009908Y011657D01*
X009908Y011405D01*
X010005Y011172D01*
X010148Y011029D01*
X010130Y011015D01*
X010059Y010944D01*
X010000Y010864D01*
X009955Y010775D01*
X009924Y010680D01*
X009908Y010581D01*
X009908Y010531D01*
X009908Y010481D01*
X009924Y010383D01*
X009955Y010288D01*
X010000Y010199D01*
X010059Y010118D01*
X010130Y010047D01*
X010210Y009988D01*
X010299Y009943D01*
X010394Y009912D01*
X010493Y009897D01*
X010858Y009897D01*
X011223Y009897D01*
X011321Y009912D01*
X011416Y009943D01*
X011505Y009988D01*
X011586Y010047D01*
X011657Y010118D01*
X011715Y010199D01*
X011745Y010257D01*
X011745Y010174D01*
X011794Y010057D01*
X011884Y009967D01*
X012001Y009919D01*
X012714Y009919D01*
X012832Y009967D01*
X012878Y010014D01*
X012878Y007617D01*
X012718Y007550D01*
X012678Y007511D01*
X005804Y007511D01*
X005804Y007722D01*
X005755Y007839D01*
X005666Y007929D01*
X005548Y007977D01*
X004167Y007977D01*
X004050Y007929D01*
X003960Y007839D01*
X003912Y007722D01*
X003912Y006341D01*
X003960Y006223D01*
X004050Y006133D01*
X004167Y006085D01*
X005548Y006085D01*
X005666Y006133D01*
X005755Y006223D01*
X005804Y006341D01*
X005804Y006552D01*
X012678Y006552D01*
X012718Y006512D01*
X012943Y006419D01*
X013773Y006419D01*
X013998Y006512D01*
X014170Y006684D01*
X014263Y006909D01*
X014263Y007153D01*
X014170Y007378D01*
X013998Y007550D01*
X013837Y007617D01*
X013837Y010462D01*
X013878Y010445D01*
X013878Y008436D01*
X013951Y008260D01*
X014378Y007833D01*
X014378Y005048D01*
X014373Y004970D01*
X014378Y004953D01*
X014378Y004936D01*
X014408Y004863D01*
X014433Y004789D01*
X014445Y004776D01*
X014451Y004760D01*
X014507Y004704D01*
X014558Y004645D01*
X014574Y004637D01*
X014586Y004625D01*
X014659Y004595D01*
X015574Y004137D01*
X015586Y004125D01*
X015618Y004111D01*
X015718Y004012D01*
X015943Y003919D01*
X016773Y003919D01*
X016998Y004012D01*
X017170Y004184D01*
X017263Y004409D01*
X017263Y004653D01*
X017170Y004878D01*
X016998Y005050D01*
X016773Y005144D01*
X015943Y005144D01*
X015813Y005090D01*
X015337Y005327D01*
X015337Y008126D01*
X015264Y008303D01*
X015129Y008438D01*
X014837Y008730D01*
X014837Y010445D01*
X014998Y010512D01*
X015038Y010552D01*
X015299Y010552D01*
X015384Y010467D01*
X015501Y010419D01*
X016214Y010419D01*
X016332Y010467D01*
X016378Y010514D01*
X016378Y009936D01*
X016451Y009760D01*
X016586Y009625D01*
X017439Y008772D01*
X017339Y008671D01*
X017245Y008446D01*
X017245Y008097D01*
X016970Y007822D01*
X016970Y008388D01*
X016922Y008505D01*
X016832Y008595D01*
X016714Y008644D01*
X016001Y008644D01*
X015884Y008595D01*
X015794Y008505D01*
X015745Y008388D01*
X015745Y007674D01*
X015785Y007578D01*
X015718Y007550D01*
X015545Y007378D01*
X015452Y007153D01*
X015452Y006909D01*
X015545Y006684D01*
X015718Y006512D01*
X015943Y006419D01*
X016773Y006419D01*
X016998Y006512D01*
X017098Y006611D01*
X017129Y006625D01*
X017264Y006760D01*
X017661Y007156D01*
X017736Y007125D01*
X017980Y007125D01*
X018205Y007219D01*
X018377Y007391D01*
X018444Y007552D01*
X019714Y007552D01*
X019741Y007525D01*
X019961Y007434D01*
X020755Y007434D01*
X020974Y007525D01*
X021002Y007552D01*
X021453Y007552D01*
X021629Y007625D01*
X022129Y008125D01*
X022264Y008260D01*
X022337Y008436D01*
X022337Y010552D01*
X022714Y010552D01*
X022735Y010531D01*
X022573Y010370D01*
X022482Y010150D01*
X022482Y009912D01*
X022573Y009693D01*
X022735Y009531D01*
X022573Y009370D01*
X022482Y009150D01*
X022482Y008912D01*
X022573Y008693D01*
X022735Y008531D01*
X022573Y008370D01*
X022482Y008150D01*
X022482Y007912D01*
X022573Y007693D01*
X022741Y007525D01*
X022878Y007468D01*
X022878Y006730D01*
X022554Y006406D01*
X022480Y006437D01*
X022236Y006437D01*
X022011Y006344D01*
X021853Y006185D01*
X021825Y006223D01*
X021757Y006291D01*
X021679Y006348D01*
X021593Y006392D01*
X021501Y006422D01*
X021406Y006437D01*
X021358Y006437D01*
X021358Y005531D01*
X021358Y004625D01*
X021406Y004625D01*
X021501Y004641D01*
X021593Y004670D01*
X021679Y004714D01*
X021757Y004771D01*
X021825Y004839D01*
X021853Y004877D01*
X022011Y004719D01*
X022236Y004625D01*
X022480Y004625D01*
X022705Y004719D01*
X022877Y004891D01*
X022970Y005116D01*
X022970Y005466D01*
X023629Y006125D01*
X023764Y006260D01*
X023837Y006436D01*
X023837Y007468D01*
X023974Y007525D01*
X024143Y007693D01*
X024233Y007912D01*
X024233Y008150D01*
X024143Y008370D01*
X023981Y008531D01*
X024143Y008693D01*
X024233Y008912D01*
X024233Y009150D01*
X024143Y009370D01*
X023981Y009531D01*
X024002Y009552D01*
X024772Y009552D01*
X024839Y009391D01*
X025011Y009219D01*
X025236Y009125D01*
X025480Y009125D01*
X025705Y009219D01*
X025877Y009391D01*
X025944Y009552D01*
X025953Y009552D01*
X026129Y009625D01*
X026264Y009760D01*
X027264Y010760D01*
X027337Y010936D01*
X027337Y013126D01*
X027264Y013303D01*
X027129Y013438D01*
X026129Y014438D01*
X025953Y014511D01*
X024476Y014511D01*
X024396Y014706D01*
X024217Y014884D01*
X023984Y014981D01*
X023732Y014981D01*
X023498Y014884D01*
X023355Y014741D01*
X023342Y014759D01*
X023271Y014830D01*
X023190Y014889D01*
X023101Y014934D01*
X023006Y014965D01*
X022908Y014981D01*
X022858Y014981D01*
X022858Y014031D01*
X022858Y013082D01*
X022908Y013082D01*
X023006Y013097D01*
X023101Y013128D01*
X023190Y013173D01*
X023271Y013232D01*
X023342Y013303D01*
X023355Y013321D01*
X023498Y013178D01*
X023732Y013082D01*
X023984Y013082D01*
X024217Y013178D01*
X024396Y013357D01*
X024476Y013552D01*
X024789Y013552D01*
X024745Y013446D01*
X024745Y012616D01*
X024751Y012602D01*
X023771Y011622D01*
X023755Y011629D01*
X022961Y011629D01*
X022741Y011538D01*
X022714Y011511D01*
X021762Y011511D01*
X021586Y011438D01*
X021451Y011303D01*
X021378Y011126D01*
X021378Y008730D01*
X021159Y008511D01*
X021002Y008511D01*
X020981Y008531D01*
X021143Y008693D01*
X021233Y008912D01*
X021233Y009150D01*
X021143Y009370D01*
X020981Y009531D01*
X021143Y009693D01*
X021233Y009912D01*
X021233Y010150D01*
X021143Y010370D01*
X020974Y010538D01*
X021025Y010575D01*
X021092Y010642D01*
X021147Y010718D01*
X021190Y010802D01*
X021219Y010891D01*
X021233Y010984D01*
X021233Y011031D01*
X020358Y011031D01*
X020358Y011031D01*
X021233Y011031D01*
X021233Y011078D01*
X021219Y011171D01*
X021190Y011261D01*
X021147Y011344D01*
X021092Y011420D01*
X021025Y011487D01*
X020949Y011542D01*
X020865Y011585D01*
X020776Y011614D01*
X020683Y011629D01*
X020358Y011629D01*
X020358Y011031D01*
X020358Y011031D01*
X019482Y011031D01*
X019482Y010984D01*
X019497Y010891D01*
X019526Y010802D01*
X019569Y010718D01*
X019624Y010642D01*
X019690Y010575D01*
X019742Y010538D01*
X019741Y010538D01*
X019714Y010511D01*
X019056Y010511D01*
X018536Y011031D01*
X018946Y011441D01*
X019001Y011419D01*
X019623Y011419D01*
X019569Y011344D01*
X019526Y011261D01*
X019497Y011171D01*
X019482Y011078D01*
X019482Y011031D01*
X020358Y011031D01*
X020358Y011031D01*
X020358Y011629D01*
X020033Y011629D01*
X019946Y011615D01*
X019970Y011674D01*
X019970Y012388D01*
X019922Y012505D01*
X019832Y012595D01*
X019714Y012644D01*
X019148Y012644D01*
X019264Y012760D01*
X019330Y012919D01*
X019566Y012919D01*
X019791Y013012D01*
X019963Y013184D01*
X020057Y013409D01*
X020057Y013653D01*
X019963Y013878D01*
X019791Y014050D01*
X019788Y014052D01*
X020159Y014052D01*
X020245Y013966D01*
X020245Y013674D01*
X020294Y013557D01*
X020384Y013467D01*
X020501Y013419D01*
X021214Y013419D01*
X021332Y013467D01*
X021422Y013557D01*
X021470Y013674D01*
X021470Y014388D01*
X021422Y014505D01*
X021332Y014595D01*
X021214Y014644D01*
X020923Y014644D01*
X020629Y014938D01*
X020453Y015011D01*
X019470Y015011D01*
X019470Y015239D01*
X019377Y015464D01*
X019205Y015637D01*
X018980Y015730D01*
X018736Y015730D01*
X018511Y015637D01*
X018339Y015464D01*
X018245Y015239D01*
X018245Y014409D01*
X018339Y014184D01*
X018492Y014031D01*
X018353Y013892D01*
X018325Y013930D01*
X018257Y013998D01*
X018179Y014055D01*
X018093Y014099D01*
X018001Y014129D01*
X017906Y014144D01*
X017858Y014144D01*
X017858Y013531D01*
X017858Y013531D01*
X016659Y013531D01*
X016659Y013483D01*
X016673Y013394D01*
X015837Y014230D01*
X015837Y014351D01*
X015877Y014391D01*
X015970Y014616D01*
X015970Y015446D01*
X015877Y015671D01*
X015705Y015844D01*
X015480Y015937D01*
X015236Y015937D01*
X015011Y015844D01*
X014839Y015671D01*
X014745Y015446D01*
X014745Y014616D01*
X014839Y014391D01*
X014878Y014351D01*
X014878Y013936D01*
X014951Y013760D01*
X015086Y013625D01*
X016378Y012333D01*
X016378Y011549D01*
X016332Y011595D01*
X016214Y011644D01*
X015501Y011644D01*
X015384Y011595D01*
X015299Y011511D01*
X015038Y011511D01*
X015017Y011531D01*
X015170Y011684D01*
X015263Y011909D01*
X015263Y012153D01*
X015170Y012378D01*
X014998Y012550D01*
X014773Y012644D01*
X013943Y012644D01*
X013718Y012550D01*
X013618Y012451D01*
X013586Y012438D01*
X013451Y012303D01*
X012951Y011803D01*
X012878Y011626D01*
X012878Y011049D01*
X012832Y011095D01*
X012714Y011144D01*
X012423Y011144D01*
X012036Y011531D01*
X013264Y012760D01*
X013337Y012936D01*
X013337Y013286D01*
X013400Y013349D01*
X013497Y013584D01*
X013497Y014478D01*
X013400Y014713D01*
X013220Y014893D01*
X012985Y014991D01*
X012731Y014991D01*
X012496Y014893D01*
X012355Y014753D01*
X012340Y014774D01*
X012280Y014833D01*
X012214Y014884D01*
X012141Y014926D01*
X012064Y014958D01*
X011983Y014980D01*
X011900Y014991D01*
X011858Y014991D01*
X011858Y014031D01*
X011858Y013072D01*
X011858Y014031D01*
X011858Y014031D01*
X011858Y014031D01*
X011858Y014991D01*
X011816Y014991D01*
X011733Y014980D01*
X011652Y014958D01*
X011574Y014926D01*
X011502Y014884D01*
X011435Y014833D01*
X011376Y014774D01*
X011360Y014753D01*
X011220Y014893D01*
X010985Y014991D01*
X010731Y014991D01*
X010496Y014893D01*
X010335Y014732D01*
X010129Y014938D01*
X009953Y015011D01*
X005804Y015011D01*
X005804Y015222D01*
X005755Y015339D01*
X005666Y015429D01*
X005548Y015477D01*
X005337Y015477D01*
X005337Y016585D01*
X005548Y016585D01*
X005666Y016633D01*
X005755Y016723D01*
X005804Y016841D01*
X005670Y016638D02*
X028594Y016638D01*
X028594Y016319D02*
X005337Y016319D01*
X005337Y016001D02*
X028594Y016001D01*
X028594Y015682D02*
X019095Y015682D01*
X019419Y015364D02*
X028594Y015364D01*
X028594Y015045D02*
X019470Y015045D01*
X018858Y014531D02*
X020358Y014531D01*
X020858Y014031D01*
X020245Y013771D02*
X020008Y013771D01*
X020057Y013453D02*
X020419Y013453D01*
X019913Y013134D02*
X022603Y013134D01*
X022614Y013128D02*
X022709Y013097D01*
X022808Y013082D01*
X022858Y013082D01*
X022858Y014031D01*
X022858Y014031D01*
X022858Y014031D01*
X022223Y014031D01*
X022223Y013666D01*
X022239Y013568D01*
X022270Y013473D01*
X022315Y013384D01*
X022374Y013303D01*
X022445Y013232D01*
X022525Y013173D01*
X022614Y013128D01*
X022858Y013134D02*
X022858Y013134D01*
X023113Y013134D02*
X023605Y013134D01*
X024111Y013134D02*
X024745Y013134D01*
X024745Y012816D02*
X019288Y012816D01*
X018858Y013031D02*
X018358Y012531D01*
X017858Y012531D01*
X016858Y012531D02*
X015358Y014031D01*
X015358Y015031D01*
X015970Y015045D02*
X018245Y015045D01*
X018245Y014727D02*
X015970Y014727D01*
X015884Y014408D02*
X018246Y014408D01*
X018111Y014090D02*
X018433Y014090D01*
X017858Y014090D02*
X017858Y014090D01*
X017858Y014144D02*
X017223Y014144D01*
X017128Y014129D01*
X017036Y014099D01*
X016951Y014055D01*
X016873Y013998D01*
X016804Y013930D01*
X016748Y013852D01*
X016704Y013766D01*
X016674Y013675D01*
X016659Y013579D01*
X016659Y013531D01*
X017858Y013531D01*
X017858Y013531D01*
X017858Y014144D01*
X017858Y013771D02*
X017858Y013771D01*
X017018Y014090D02*
X015977Y014090D01*
X016296Y013771D02*
X016706Y013771D01*
X016664Y013453D02*
X016614Y013453D01*
X015895Y012816D02*
X013288Y012816D01*
X013337Y013134D02*
X015577Y013134D01*
X015258Y013453D02*
X013443Y013453D01*
X013497Y013771D02*
X014947Y013771D01*
X014878Y014090D02*
X013497Y014090D01*
X013497Y014408D02*
X014831Y014408D01*
X014745Y014727D02*
X013387Y014727D01*
X012858Y014031D02*
X012858Y013031D01*
X011358Y011531D01*
X012358Y010531D01*
X012344Y011223D02*
X012878Y011223D01*
X012878Y011542D02*
X012046Y011542D01*
X012365Y011860D02*
X013009Y011860D01*
X013327Y012179D02*
X012683Y012179D01*
X013002Y012497D02*
X013664Y012497D01*
X013858Y012031D02*
X014358Y012031D01*
X013858Y012031D02*
X013358Y011531D01*
X013358Y007031D01*
X004858Y007031D01*
X003912Y007083D02*
X002492Y007083D01*
X002492Y007401D02*
X003912Y007401D01*
X003912Y007720D02*
X002492Y007720D01*
X002492Y008038D02*
X012878Y008038D01*
X012878Y007720D02*
X005804Y007720D01*
X005636Y008121D02*
X005688Y008156D01*
X005733Y008201D01*
X005768Y008253D01*
X005792Y008311D01*
X005804Y008373D01*
X005804Y008976D01*
X004913Y008976D01*
X004913Y009086D01*
X005804Y009086D01*
X005804Y009689D01*
X005792Y009751D01*
X005768Y009809D01*
X005733Y009862D01*
X005688Y009906D01*
X005636Y009941D01*
X005578Y009965D01*
X005516Y009977D01*
X004913Y009977D01*
X004913Y009086D01*
X004803Y009086D01*
X004803Y009977D01*
X004200Y009977D01*
X004138Y009965D01*
X004080Y009941D01*
X004027Y009906D01*
X003983Y009862D01*
X003948Y009809D01*
X003924Y009751D01*
X003912Y009689D01*
X003912Y009086D01*
X004803Y009086D01*
X004803Y008976D01*
X004913Y008976D01*
X004913Y008085D01*
X005516Y008085D01*
X005578Y008097D01*
X005636Y008121D01*
X005801Y008357D02*
X012878Y008357D01*
X012878Y008675D02*
X005804Y008675D01*
X005804Y009312D02*
X012878Y009312D01*
X012878Y008994D02*
X004913Y008994D01*
X004803Y008994D02*
X002492Y008994D01*
X002492Y009312D02*
X003912Y009312D01*
X003912Y009631D02*
X002492Y009631D01*
X002492Y009949D02*
X004099Y009949D01*
X004803Y009949D02*
X004913Y009949D01*
X004913Y009631D02*
X004803Y009631D01*
X004803Y009312D02*
X004913Y009312D01*
X004803Y008976D02*
X003912Y008976D01*
X003912Y008373D01*
X003924Y008311D01*
X003948Y008253D01*
X003983Y008201D01*
X004027Y008156D01*
X004080Y008121D01*
X004138Y008097D01*
X004200Y008085D01*
X004803Y008085D01*
X004803Y008976D01*
X004803Y008675D02*
X004913Y008675D01*
X004913Y008357D02*
X004803Y008357D01*
X003915Y008357D02*
X002492Y008357D01*
X002492Y008675D02*
X003912Y008675D01*
X005617Y009949D02*
X010288Y009949D01*
X009965Y010268D02*
X002492Y010268D01*
X002492Y010586D02*
X009909Y010586D01*
X009908Y010531D02*
X010858Y010531D01*
X010858Y009897D01*
X010858Y010531D01*
X010858Y010531D01*
X009908Y010531D01*
X010030Y010905D02*
X002492Y010905D01*
X002492Y011223D02*
X009984Y011223D01*
X009908Y011542D02*
X002492Y011542D01*
X002492Y011860D02*
X003914Y011860D01*
X003912Y011873D02*
X003924Y011811D01*
X003948Y011753D01*
X003983Y011701D01*
X004027Y011656D01*
X004080Y011621D01*
X004138Y011597D01*
X004200Y011585D01*
X004803Y011585D01*
X004803Y012476D01*
X004913Y012476D01*
X004913Y012586D01*
X005804Y012586D01*
X005804Y013189D01*
X005792Y013251D01*
X005768Y013309D01*
X005733Y013362D01*
X005688Y013406D01*
X005636Y013441D01*
X005578Y013465D01*
X005516Y013477D01*
X004913Y013477D01*
X004913Y012586D01*
X004803Y012586D01*
X004803Y013477D01*
X004200Y013477D01*
X004138Y013465D01*
X004080Y013441D01*
X004027Y013406D01*
X003983Y013362D01*
X003948Y013309D01*
X003924Y013251D01*
X003912Y013189D01*
X003912Y012586D01*
X004803Y012586D01*
X004803Y012476D01*
X003912Y012476D01*
X003912Y011873D01*
X003912Y012179D02*
X002492Y012179D01*
X002492Y012497D02*
X004803Y012497D01*
X004913Y012497D02*
X011646Y012497D01*
X011964Y012816D02*
X005804Y012816D01*
X005804Y013134D02*
X010580Y013134D01*
X010273Y013453D02*
X005608Y013453D01*
X005775Y013771D02*
X009940Y013771D01*
X010358Y014031D02*
X010858Y014031D01*
X010358Y014031D02*
X009858Y014531D01*
X004858Y014531D01*
X004858Y017531D01*
X003912Y017593D02*
X002492Y017593D01*
X002492Y017275D02*
X003912Y017275D01*
X003912Y016956D02*
X002492Y016956D01*
X002492Y016638D02*
X004046Y016638D01*
X004378Y016319D02*
X002492Y016319D01*
X002492Y016001D02*
X004378Y016001D01*
X004378Y015682D02*
X002492Y015682D01*
X002492Y015364D02*
X003985Y015364D01*
X003912Y015045D02*
X002492Y015045D01*
X002492Y014727D02*
X003912Y014727D01*
X003912Y014408D02*
X002492Y014408D01*
X002492Y014090D02*
X003912Y014090D01*
X003940Y013771D02*
X002492Y013771D01*
X002492Y013453D02*
X004108Y013453D01*
X003912Y013134D02*
X002492Y013134D01*
X002492Y012816D02*
X003912Y012816D01*
X004803Y012816D02*
X004913Y012816D01*
X004913Y013134D02*
X004803Y013134D01*
X004803Y013453D02*
X004913Y013453D01*
X004913Y012476D02*
X005804Y012476D01*
X005804Y011873D01*
X005792Y011811D01*
X005768Y011753D01*
X005733Y011701D01*
X005688Y011656D01*
X005636Y011621D01*
X005578Y011597D01*
X005516Y011585D01*
X004913Y011585D01*
X004913Y012476D01*
X004913Y012179D02*
X004803Y012179D01*
X004803Y011860D02*
X004913Y011860D01*
X005802Y011860D02*
X009992Y011860D01*
X010858Y011531D02*
X011358Y011531D01*
X011327Y012179D02*
X005804Y012179D01*
X005804Y009631D02*
X012878Y009631D01*
X012878Y009949D02*
X012788Y009949D01*
X011927Y009949D02*
X011428Y009949D01*
X010858Y009949D02*
X010858Y009949D01*
X010858Y010268D02*
X010858Y010268D01*
X010858Y010531D02*
X010858Y010531D01*
X013837Y010268D02*
X013878Y010268D01*
X013878Y009949D02*
X013837Y009949D01*
X013837Y009631D02*
X013878Y009631D01*
X013878Y009312D02*
X013837Y009312D01*
X013837Y008994D02*
X013878Y008994D01*
X013878Y008675D02*
X013837Y008675D01*
X013837Y008357D02*
X013911Y008357D01*
X013837Y008038D02*
X014173Y008038D01*
X014378Y007720D02*
X013837Y007720D01*
X014147Y007401D02*
X014378Y007401D01*
X014378Y007083D02*
X014263Y007083D01*
X014203Y006764D02*
X014378Y006764D01*
X014378Y006446D02*
X013838Y006446D01*
X014378Y006127D02*
X005650Y006127D01*
X005804Y006446D02*
X012878Y006446D01*
X013016Y005144D02*
X012921Y005129D01*
X012830Y005099D01*
X012744Y005055D01*
X012666Y004998D01*
X012597Y004930D01*
X012541Y004852D01*
X012497Y004766D01*
X012467Y004675D01*
X012452Y004579D01*
X012452Y004531D01*
X012452Y004483D01*
X012467Y004388D01*
X012497Y004296D01*
X012541Y004210D01*
X012597Y004132D01*
X012666Y004064D01*
X012744Y004007D01*
X012830Y003963D01*
X012921Y003934D01*
X013016Y003919D01*
X013358Y003919D01*
X013699Y003919D01*
X013794Y003934D01*
X013886Y003963D01*
X013972Y004007D01*
X014050Y004064D01*
X014118Y004132D01*
X014175Y004210D01*
X014219Y004296D01*
X014248Y004388D01*
X014263Y004483D01*
X014263Y004531D01*
X013358Y004531D01*
X013358Y004531D01*
X013358Y003919D01*
X013358Y004531D01*
X013358Y004531D01*
X014263Y004531D01*
X014263Y004579D01*
X014248Y004675D01*
X014219Y004766D01*
X014175Y004852D01*
X014118Y004930D01*
X014050Y004998D01*
X013972Y005055D01*
X013886Y005099D01*
X013794Y005129D01*
X013699Y005144D01*
X013358Y005144D01*
X013358Y004531D01*
X013358Y004531D01*
X012452Y004531D01*
X013358Y004531D01*
X013358Y004531D01*
X013358Y005144D01*
X013016Y005144D01*
X013358Y004853D02*
X013358Y004853D01*
X013358Y004535D02*
X013358Y004535D01*
X013358Y004216D02*
X013358Y004216D01*
X014178Y004216D02*
X015416Y004216D01*
X015858Y004531D02*
X014858Y005031D01*
X014858Y008031D01*
X014358Y008531D01*
X014358Y011031D01*
X015858Y011031D01*
X015330Y011542D02*
X015028Y011542D01*
X015243Y011860D02*
X016378Y011860D01*
X016378Y012179D02*
X015253Y012179D01*
X015051Y012497D02*
X016214Y012497D01*
X016858Y012531D02*
X016858Y010031D01*
X017858Y009031D01*
X020358Y009031D01*
X021125Y008675D02*
X021324Y008675D01*
X021378Y008994D02*
X021233Y008994D01*
X021166Y009312D02*
X021378Y009312D01*
X021378Y009631D02*
X021081Y009631D01*
X021233Y009949D02*
X021378Y009949D01*
X021378Y010268D02*
X021185Y010268D01*
X020974Y010538D02*
X020974Y010538D01*
X021036Y010586D02*
X021378Y010586D01*
X021378Y010905D02*
X021221Y010905D01*
X021202Y011223D02*
X021418Y011223D01*
X021858Y011031D02*
X023358Y011031D01*
X023858Y011031D01*
X025358Y012531D01*
X025358Y013031D01*
X024748Y013453D02*
X024435Y013453D01*
X023858Y014031D02*
X025858Y014031D01*
X026858Y013031D01*
X026858Y011031D01*
X025858Y010031D01*
X025358Y010031D01*
X023358Y010031D01*
X023358Y009031D01*
X024125Y008675D02*
X028594Y008675D01*
X028594Y008357D02*
X024148Y008357D01*
X024233Y008038D02*
X028594Y008038D01*
X028594Y007720D02*
X024154Y007720D01*
X023837Y007401D02*
X028594Y007401D01*
X028594Y007083D02*
X023837Y007083D01*
X023837Y006764D02*
X028594Y006764D01*
X028594Y006446D02*
X023837Y006446D01*
X023632Y006127D02*
X028594Y006127D01*
X028594Y005809D02*
X023313Y005809D01*
X022995Y005490D02*
X028594Y005490D01*
X028594Y005172D02*
X022970Y005172D01*
X022839Y004853D02*
X028594Y004853D01*
X028594Y004535D02*
X017263Y004535D01*
X017183Y004216D02*
X028594Y004216D01*
X028594Y003898D02*
X027665Y003898D01*
X027585Y003978D02*
X027805Y003758D01*
X027961Y003488D01*
X028041Y003187D01*
X028041Y002875D01*
X027961Y002574D01*
X027805Y002304D01*
X027585Y002084D01*
X027315Y001928D01*
X027014Y001848D01*
X026702Y001848D01*
X026401Y001928D01*
X026131Y002084D01*
X025911Y002304D01*
X025755Y002574D01*
X025674Y002875D01*
X025674Y003187D01*
X025755Y003488D01*
X025911Y003758D01*
X026131Y003978D01*
X026401Y004134D01*
X026702Y004215D01*
X027014Y004215D01*
X027315Y004134D01*
X027585Y003978D01*
X027908Y003579D02*
X028594Y003579D01*
X028594Y003261D02*
X028022Y003261D01*
X028041Y002942D02*
X028594Y002942D01*
X028594Y002624D02*
X027974Y002624D01*
X027805Y002305D02*
X028594Y002305D01*
X028594Y001987D02*
X027416Y001987D01*
X026300Y001987D02*
X004916Y001987D01*
X004815Y001928D02*
X005085Y002084D01*
X005305Y002304D01*
X005461Y002574D01*
X005541Y002875D01*
X005541Y003187D01*
X005461Y003488D01*
X005305Y003758D01*
X005085Y003978D01*
X004815Y004134D01*
X004514Y004215D01*
X004202Y004215D01*
X003901Y004134D01*
X003631Y003978D01*
X003411Y003758D01*
X003255Y003488D01*
X003174Y003187D01*
X003174Y002875D01*
X003255Y002574D01*
X003411Y002304D01*
X003631Y002084D01*
X003901Y001928D01*
X004202Y001848D01*
X004514Y001848D01*
X004815Y001928D01*
X005305Y002305D02*
X025910Y002305D01*
X025742Y002624D02*
X005474Y002624D01*
X005541Y002942D02*
X025674Y002942D01*
X025694Y003261D02*
X005522Y003261D01*
X005408Y003579D02*
X025807Y003579D01*
X026050Y003898D02*
X005165Y003898D01*
X003550Y003898D02*
X002492Y003898D01*
X002492Y004216D02*
X012538Y004216D01*
X012452Y004535D02*
X002492Y004535D01*
X002492Y004853D02*
X012541Y004853D01*
X014174Y004853D02*
X014412Y004853D01*
X014378Y005172D02*
X002492Y005172D01*
X002492Y005490D02*
X014378Y005490D01*
X014378Y005809D02*
X002492Y005809D01*
X002492Y006127D02*
X004065Y006127D01*
X003912Y006446D02*
X002492Y006446D01*
X002492Y006764D02*
X003912Y006764D01*
X003307Y003579D02*
X002492Y003579D01*
X002492Y003261D02*
X003194Y003261D01*
X003174Y002942D02*
X002492Y002942D01*
X002492Y002624D02*
X003242Y002624D01*
X003410Y002305D02*
X002492Y002305D01*
X002492Y001987D02*
X003800Y001987D01*
X002492Y001668D02*
X028594Y001668D01*
X023358Y006531D02*
X023358Y008031D01*
X022878Y007401D02*
X018381Y007401D01*
X017858Y008031D02*
X021358Y008031D01*
X021858Y008531D01*
X021858Y011031D01*
X022751Y011542D02*
X020950Y011542D01*
X020358Y011542D02*
X020358Y011542D01*
X020358Y011223D02*
X020358Y011223D01*
X019514Y011223D02*
X018728Y011223D01*
X018662Y010905D02*
X019495Y010905D01*
X019680Y010586D02*
X018981Y010586D01*
X018858Y010031D02*
X020358Y010031D01*
X018858Y010031D02*
X017858Y011031D01*
X018858Y012031D01*
X019358Y012031D01*
X019970Y012179D02*
X024327Y012179D01*
X024646Y012497D02*
X019925Y012497D01*
X019970Y011860D02*
X024009Y011860D01*
X022858Y013453D02*
X022858Y013453D01*
X022858Y013771D02*
X022858Y013771D01*
X022858Y014031D02*
X022858Y014031D01*
X022223Y014031D01*
X022223Y014396D01*
X022239Y014495D01*
X022270Y014590D01*
X022315Y014679D01*
X022374Y014759D01*
X022445Y014830D01*
X022525Y014889D01*
X022614Y014934D01*
X022709Y014965D01*
X022808Y014981D01*
X022858Y014981D01*
X022858Y014031D01*
X022858Y014090D02*
X022858Y014090D01*
X022858Y014408D02*
X022858Y014408D01*
X022858Y014727D02*
X022858Y014727D01*
X022350Y014727D02*
X020840Y014727D01*
X021462Y014408D02*
X022225Y014408D01*
X022223Y014090D02*
X021470Y014090D01*
X021470Y013771D02*
X022223Y013771D01*
X022280Y013453D02*
X021297Y013453D01*
X018858Y013531D02*
X018858Y013031D01*
X018297Y015364D02*
X015970Y015364D01*
X015866Y015682D02*
X018621Y015682D01*
X015761Y017275D02*
X024820Y017275D01*
X023448Y018867D02*
X020872Y018867D01*
X021190Y019186D02*
X023448Y019186D01*
X023511Y019504D02*
X021337Y019504D01*
X021337Y019823D02*
X023625Y019823D01*
X023809Y020141D02*
X021337Y020141D01*
X021337Y020460D02*
X024127Y020460D01*
X024784Y020778D02*
X021274Y020778D01*
X018358Y020031D02*
X016358Y020031D01*
X014745Y018230D02*
X012503Y018230D01*
X011213Y018230D02*
X005801Y018230D01*
X005804Y017912D02*
X014745Y017912D01*
X014755Y017593D02*
X005804Y017593D01*
X005804Y017275D02*
X014955Y017275D01*
X014849Y015682D02*
X005337Y015682D01*
X005731Y015364D02*
X014745Y015364D01*
X014745Y015045D02*
X005804Y015045D01*
X003912Y017912D02*
X002492Y017912D01*
X002492Y018230D02*
X003915Y018230D01*
X003912Y019823D02*
X002492Y019823D01*
X002492Y020141D02*
X003912Y020141D01*
X004124Y020460D02*
X002492Y020460D01*
X002492Y020778D02*
X005927Y020778D01*
X005608Y020460D02*
X005591Y020460D01*
X011858Y014727D02*
X011858Y014727D01*
X011858Y014408D02*
X011858Y014408D01*
X011858Y014090D02*
X011858Y014090D01*
X011858Y013771D02*
X011858Y013771D01*
X011858Y013453D02*
X011858Y013453D01*
X011858Y013134D02*
X011858Y013134D01*
X012136Y013134D02*
X012283Y013134D01*
X011580Y013134D02*
X011136Y013134D01*
X014837Y010268D02*
X016378Y010268D01*
X016378Y009949D02*
X014837Y009949D01*
X014837Y009631D02*
X016580Y009631D01*
X016586Y009625D02*
X016586Y009625D01*
X016899Y009312D02*
X014837Y009312D01*
X014837Y008994D02*
X017217Y008994D01*
X017342Y008675D02*
X014892Y008675D01*
X015210Y008357D02*
X015745Y008357D01*
X015745Y008038D02*
X015337Y008038D01*
X015337Y007720D02*
X015745Y007720D01*
X015568Y007401D02*
X015337Y007401D01*
X015337Y007083D02*
X015452Y007083D01*
X015512Y006764D02*
X015337Y006764D01*
X015337Y006446D02*
X015878Y006446D01*
X015337Y006127D02*
X020825Y006127D01*
X020834Y006145D02*
X020790Y006059D01*
X020760Y005968D01*
X020745Y005872D01*
X020745Y005531D01*
X020745Y005190D01*
X020760Y005095D01*
X020790Y005003D01*
X020834Y004917D01*
X020891Y004839D01*
X020959Y004771D01*
X021037Y004714D01*
X021123Y004670D01*
X021214Y004641D01*
X021310Y004625D01*
X021358Y004625D01*
X021358Y005531D01*
X021358Y005531D01*
X021358Y005531D01*
X020745Y005531D01*
X021358Y005531D01*
X021358Y005531D01*
X021358Y006437D01*
X021310Y006437D01*
X021214Y006422D01*
X021123Y006392D01*
X021037Y006348D01*
X020959Y006291D01*
X020891Y006223D01*
X020834Y006145D01*
X020745Y005809D02*
X015337Y005809D01*
X015337Y005490D02*
X020745Y005490D01*
X020748Y005172D02*
X015649Y005172D01*
X015858Y004531D02*
X016358Y004531D01*
X017181Y004853D02*
X020880Y004853D01*
X021358Y004853D02*
X021358Y004853D01*
X021358Y005172D02*
X021358Y005172D01*
X021358Y005490D02*
X021358Y005490D01*
X021358Y005809D02*
X021358Y005809D01*
X021358Y006127D02*
X021358Y006127D01*
X022358Y005531D02*
X023358Y006531D01*
X022878Y006764D02*
X017269Y006764D01*
X017587Y007083D02*
X022878Y007083D01*
X022594Y006446D02*
X016838Y006446D01*
X016858Y007031D02*
X016358Y007031D01*
X016358Y008031D01*
X016970Y008038D02*
X017187Y008038D01*
X017245Y008357D02*
X016970Y008357D01*
X017858Y008031D02*
X016858Y007031D01*
X014779Y004535D02*
X014263Y004535D01*
X021724Y007720D02*
X022562Y007720D01*
X022482Y008038D02*
X022043Y008038D01*
X022304Y008357D02*
X022568Y008357D01*
X022591Y008675D02*
X022337Y008675D01*
X022337Y008994D02*
X022482Y008994D01*
X022549Y009312D02*
X022337Y009312D01*
X022337Y009631D02*
X022635Y009631D01*
X022482Y009949D02*
X022337Y009949D01*
X022337Y010268D02*
X022531Y010268D01*
X024166Y009312D02*
X024917Y009312D01*
X024233Y008994D02*
X028594Y008994D01*
X028594Y009312D02*
X025798Y009312D01*
X026135Y009631D02*
X028594Y009631D01*
X028594Y009949D02*
X026454Y009949D01*
X026772Y010268D02*
X028594Y010268D01*
X028594Y010586D02*
X027091Y010586D01*
X027324Y010905D02*
X028594Y010905D01*
X028594Y011223D02*
X027337Y011223D01*
X027337Y011542D02*
X028594Y011542D01*
X028594Y011860D02*
X027337Y011860D01*
X027337Y012179D02*
X028594Y012179D01*
X028594Y012497D02*
X027337Y012497D01*
X027337Y012816D02*
X028594Y012816D01*
X028594Y013134D02*
X027334Y013134D01*
X027114Y013453D02*
X028594Y013453D01*
X028594Y013771D02*
X026796Y013771D01*
X026477Y014090D02*
X028594Y014090D01*
X028594Y014408D02*
X026159Y014408D01*
X024375Y014727D02*
X028594Y014727D01*
X021876Y004853D02*
X021835Y004853D01*
D17*
X016358Y008031D03*
X015858Y011031D03*
X017858Y012531D03*
X019358Y012031D03*
X020858Y014031D03*
X012358Y010531D03*
M02*
