%
M48
M72
T01C0.0320
T02C0.0350
T03C0.0400
T04C0.0420
T05C0.0860
T06C0.1260
T07C0.1300
%
T01
X26263Y13937
X26263Y14937
X26263Y15937
X26263Y16937
X29263Y16937
X29263Y15937
X29263Y14937
X29263Y13937
T02
X31263Y15937
X31263Y18937
X29763Y19937
X28763Y19937
X26763Y19937
X24763Y20437
X24763Y19437
X23763Y19437
X23763Y18437
X25263Y17937
X23763Y16937
X21763Y16937
X20263Y16937
X20263Y17937
X18263Y16437
X16763Y16437
X16763Y17437
X21263Y20937
X21263Y23937
X22263Y13937
X22263Y12937
X23763Y13937
X27263Y11437
X28263Y11437
X22263Y10437
X19263Y10437
X19263Y12937
T03
X18763Y19937
X17763Y19937
X16763Y19937
T04
X24263Y23937
X24263Y24937
X24263Y25937
T05
X10763Y25437
X10763Y23437
X10763Y20437
X10763Y18437
X10763Y14937
X10763Y12937
T06
X10263Y8937
X32763Y8937
X32763Y28437
X10263Y28437
T07
X17763Y25837
X31163Y24937
M30
