%
M48
M72
T01C0.0320
T02C0.0350
T03C0.0400
T04C0.0420
T05C0.0860
T06C0.1260
T07C0.1300
%
T01
X20358Y8031
X20358Y9031
X20358Y10031
X20358Y11031
X23358Y11031
X23358Y10031
X23358Y9031
X23358Y8031
T02
X25358Y10031
X25358Y13031
X23858Y14031
X22858Y14031
X20858Y14031
X18858Y13531
X18858Y14531
X17858Y13531
X17858Y12531
X19358Y12031
X17858Y11031
X15858Y11031
X14358Y11031
X14358Y12031
X12358Y10531
X10858Y10531
X10858Y11531
X15358Y15031
X15358Y18031
X16358Y8031
X16358Y7031
X17858Y8031
X21358Y5531
X22358Y5531
X16358Y4531
X13358Y4531
X13358Y7031
T03
X12858Y14031
X11858Y14031
X10858Y14031
T04
X18358Y18031
X18358Y19031
X18358Y20031
T05
X4858Y19531
X4858Y17531
X4858Y14531
X4858Y12531
X4858Y9031
X4858Y7031
T06
X4358Y3031
X26858Y3031
X26858Y22531
X4358Y22531
T07
X11858Y19931
X25258Y19031
M30
